<svg id="Layer_1" data-name="Layer 1" xmlns="http://www.w3.org/2000/svg" viewBox="0 0 480.43 432.63"><defs><style>.cls-1,.cls-2,.cls-3,.cls-4,.cls-5{fill:#005eff;fill-rule:evenodd;isolation:isolate;}.cls-1{opacity:1;}.cls-2{opacity:0.99;}.cls-3{opacity:0.97;}.cls-4{opacity:0.98;}.cls-5{opacity:0.98;}</style></defs><path class="cls-1" d="M169.5,31.5q14.79-3.22,21.5,10,.25,15.53,1.5,31Q229,60.1,265.5,48q14.79-4,21.5,9.5,1,166,0,332-4.22,10.49-15.5,10-11.29.48-15.5-10-.25-151.5-1.5-303l-158,53q-1.5,146-1,292,195-.25,390,.5,10.49,4.22,10,15.5.48,11.29-10,15.5-230,1-460,0Q12,456.29,16,441.5a16.64,16.64,0,0,1,9.5-9.5q19-.75,38-.5-.26-155,.5-310a16.64,16.64,0,0,1,9.5-9.5q42.56-14.1,85-28.5,1.25-21,1.5-42A19.88,19.88,0,0,1,169.5,31.5Z" transform="translate(-15.1 -30.87)"/><path class="cls-2" d="M313.5,159.5a71.86,71.86,0,0,1,12,.5l116,50a15.44,15.44,0,0,1,5.5,7.5q1,94,0,188Q440.29,419,425.5,415a16.64,16.64,0,0,1-9.5-9.5q-.25-85.5-1.5-171L309.5,189q-9.86-10.42-3.5-23.5A21.4,21.4,0,0,1,313.5,159.5Z" transform="translate(-15.1 -30.87)"/><path class="cls-3" d="M138.5,175.5q22.22-1,20.5,21-8,16.4-24.5,8.5-11.11-9.45-4.5-22.5A28,28,0,0,1,138.5,175.5Z" transform="translate(-15.1 -30.87)"/><path class="cls-4" d="M201.5,175.5q23-1.77,21.5,21-8.5,16.78-25.5,8.5-9.85-10.42-3.5-23.5A21.4,21.4,0,0,1,201.5,175.5Z" transform="translate(-15.1 -30.87)"/><path class="cls-3" d="M138.5,255.5q22.22-1,20.5,21-8,16.39-24.5,8.5-11.11-9.45-4.5-22.5A28,28,0,0,1,138.5,255.5Z" transform="translate(-15.1 -30.87)"/><path class="cls-4" d="M201.5,255.5q23-1.77,21.5,21-8.5,16.78-25.5,8.5-9.85-10.42-3.5-23.5A21.4,21.4,0,0,1,201.5,255.5Z" transform="translate(-15.1 -30.87)"/><path class="cls-5" d="M329.5,255.5q22-.25,44,.5,13.47,6.71,9.5,21.5a16.64,16.64,0,0,1-9.5,9.5q-22,1-44,0-10.49-4.22-10-15.5Q319.2,260.08,329.5,255.5Z" transform="translate(-15.1 -30.87)"/><path class="cls-3" d="M138.5,335.5q22.22-1,20.5,21-8,16.39-24.5,8.5-11.11-9.45-4.5-22.5A28,28,0,0,1,138.5,335.5Z" transform="translate(-15.1 -30.87)"/><path class="cls-4" d="M201.5,335.5q23-1.77,21.5,21-8.5,16.78-25.5,8.5-9.85-10.42-3.5-23.5A21.4,21.4,0,0,1,201.5,335.5Z" transform="translate(-15.1 -30.87)"/><path class="cls-5" d="M329.5,335.5q22-.25,44,.5,13.47,6.71,9.5,21.5a16.64,16.64,0,0,1-9.5,9.5q-22,1-44,0-10.49-4.22-10-15.5Q319.2,340.09,329.5,335.5Z" transform="translate(-15.1 -30.87)"/></svg>