<svg id="Layer_1" data-name="Layer 1" xmlns="http://www.w3.org/2000/svg" viewBox="0 0 4218.88 3054.66"><defs><style>.cls-1{fill:#005eff;stroke:#005eff;stroke-miterlimit:10;stroke-width:0.25px;fill-rule:evenodd;}</style></defs><path class="cls-1" d="M2216.13,2337.09l-.18.1c1.05-.08,2.1-.15,3.14-.25l.58-.05.5-.29C2218.82,2336.71,2217.47,2336.87,2216.13,2337.09Z" transform="translate(-580.6 263.86)"/><path class="cls-1" d="M4798.67,999.48c-84.19,75.54-177.42,134-279.62,173.71-81.26,31.55-168.24,51.27-260.9,58.28-45.84,3.47-91,7.23-135.72,11.15q2.37-5.59,4.57-11.19,3.06-7.73,5.86-15.45c38.12-3.51,76.45-7.06,115.39-10.32A901.26,901.26,0,0,0,4496.5,1144c103.93-42.31,199.68-104,286.68-183.34l-.65-1.64c-86.8,79.26-182.25,140.91-285.89,183.11a897.8,897.8,0,0,1-247.12,61.4c-39.11,3.26-77.63,6.77-115.92,10.36q4.82-13.35,8.81-26.69c32.24-3.24,64.45-6.47,97.24-9.48h.06a898.5,898.5,0,0,0,234.06-64.38c105.34-44.94,203.42-110,293.28-193.23l-.66-1.65c-89.65,83.21-187.49,148.21-292.56,193a893.93,893.93,0,0,1-232.91,64.06c-33,3-65.48,6.29-97.88,9.57q4-13.39,7.26-26.77c26.79-2.93,53.56-5.86,80.79-8.6h.11a900.21,900.21,0,0,0,219.3-66.54c106.77-47.69,207.39-116.35,300.39-203.69l-.66-1.67c-92.76,87.4-193.23,155.92-299.76,203.56a896,896,0,0,1-218.15,66.18c-27.51,2.77-54.51,5.73-81.51,8.68q3.24-13.42,5.75-26.84c22-2.57,43.77-5.19,66-7.64h.15c96.34-19.6,190.33-56.06,280.5-107.93,80.59-46.37,158.12-105,231.53-175l-.66-1.67c-73.41,70.06-150.87,128.77-231.41,175.11-89.65,51.58-183.1,87.83-278.92,107.34-22.5,2.48-44.58,5.14-66.77,7.74q2.49-13.44,4.31-26.9c17.55-2.22,34.95-4.52,52.71-6.66h.21c87.63-21.34,174.65-57.52,259.2-107.19s166.78-112.88,245.13-188.45l-.67-1.67c-78.33,75.69-160.55,139-245.06,188.61-84.13,49.47-170.56,85.39-257.71,106.62-18,2.22-35.71,4.54-53.54,6.81q1.77-13.49,2.91-27c13.7-1.91,27.2-3.85,41-5.67h.27c78.61-22.63,157.87-57.92,236.17-104.89,88.83-53.29,176.44-121.62,260.44-203.52l-.67-1.68c-84,82-171.6,150.4-260.4,203.71-77.84,46.7-156.63,81.79-234.78,104.29-14.09,1.87-27.84,3.85-41.84,5.76q1.11-13.49,1.58-27c10.25-1.53,20.35-3.11,30.67-4.61h.17l.19-.07c69.12-23.29,139.85-57.05,210.85-100.52,93.5-57.28,187.3-131.41,278-220.67l-.67-1.69c-90.69,89.41-184.5,163.64-278,220.91-70.56,43.22-140.87,76.77-209.56,99.93-10.62,1.54-21,3.18-31.56,4.74q.45-13.5.31-27c7.28-1.18,14.43-2.42,21.74-3.56h.21l.23-.09c59-23.13,120.18-54.42,182.39-93.34,98.69-61.73,199.91-142.68,298.69-240.68l-.67-1.69c-98.81,98.17-200.06,179.21-298.75,240.95-61.83,38.68-122.66,69.78-181.23,92.78-7.63,1.2-15,2.48-22.63,3.7q-.15-13.51-.87-27.06c4.73-.83,9.34-1.7,14.08-2.52h.27l.28-.12c47.75-21.7,97.85-49.21,149.39-82.1C4434.25,833.1,4544.71,744,4653.65,635.1l-.69-1.71c-109,109-219.49,198.31-324,265.06-51.19,32.72-101,60-148.38,81.58-5.06.87-10,1.79-15,2.68q-.73-13.49-2-27.09c2.58-.49,5.08-1,7.65-1.48h.31l.36-.19c34.79-18.28,71.39-39.88,109.39-64.65,110.94-72.39,233.52-172,356-295.07l-.67-1.69c-122.54,123.26-245.18,223-356.18,295.4-37.69,24.58-74,46-108.57,64.16-2.85.53-5.64,1.12-8.47,1.66q-1.24-13.47-3-27.09l2.31-.49.39-.08.4-.24q27.66-16.75,57.27-36.47C4338.6,810.91,4478.7,697,4621.06,553.32l-.67-1.7C4478,695.53,4337.75,809.55,4219.87,888.06q-29.37,19.56-56.67,36.1l-3.07.65q-1.81-13.86-4.1-27.72c119.72-83.78,281-214.88,448.72-384.7l-.68-1.69c-167.45,169.73-328.64,300.81-448.32,384.63q-2.39-14.37-5.23-28.8c111.14-89.91,269.8-224.29,438-395l-.68-1.71c-167.94,170.59-326.46,304.94-437.63,395q-2.82-14.29-6.09-28.66c25.49-23.81,54.26-50.18,85.71-79,95.35-87.43,215.3-197.44,342.35-326.68l-.69-1.72c-127.39,129.66-247.66,240-343.26,327.61-31,28.38-59.34,54.39-84.52,77.89q-3.24-14.13-6.82-28.35c50.55-54.57,118.34-120.36,196.51-196.36,67.85-65.91,143.49-139.45,222.54-219.86l-.69-1.72c-79.42,80.84-155.44,154.73-223.57,220.92-77.51,75.3-144.78,140.66-195.29,195q-3.55-14-7.42-28.09c63.28-79.2,162.36-178.18,278.47-294.16,42.14-42.12,86.51-86.43,132.22-132.87L4539,347c-46.09,46.86-90.84,91.57-133.31,134-115.31,115.2-213.79,213.61-277.31,292.65q-3.81-13.82-7.89-27.68c69.07-100.71,195.37-228.32,343.68-378.16q29.15-29.42,59.24-59.93l-.68-1.72q-30.75,31.08-60.35,61.06C4315,516.06,4189.4,643,4119.79,743.65q-4-13.62-8.24-27.23c69.85-120,219.94-271.88,395.58-449.51l-.68-1.7c-175,176.88-324.76,328.39-395.69,448.63q-4.16-13.29-8.47-26.64c61.48-126.11,210.57-281.85,388.57-461.16l-.67-1.71c-177.23,178.51-326,333.77-388.82,460.05q-4.21-13-8.57-26c52.91-132.39,201.18-292,381.81-473.19l-.68-1.7c-179.74,180.2-327.68,339.25-382.19,471.72q-4.23-12.62-8.57-25.29c44.08-138.82,191.68-302.48,375.2-485.56l-.68-1.7c-182.48,182-329.77,344.89-375.77,483.63q-4.17-12.19-8.45-24.49c35-145.38,182-313.16,368.67-498.24l-.68-1.69C4256,285.67,4109.34,452.48,4072,597.6q-4.1-11.76-8.23-23.56c25.51-152.13,172.14-324.1,362.14-511.26l-.68-1.69c-188.55,185.58-334.77,356.42-363.17,508.05L4055.36,550l-1.2-3.4c15.7-159,162-335.36,355.6-524.6l-.67-1.69C4217.2,207.72,4071.42,382.59,4052.2,540.86l-7.49-21.36c5.5-166.14,151.55-346.87,348.86-538.18l-.67-1.68c-195.25,189.2-340.73,368.13-350.56,533.11q-3.54-10-7-20c-5.1-173.43,140.75-358.66,342-552l-.66-1.67C4178,129.84,4032.79,312.79,4032.49,484.56q-3.12-9-6.2-18c-16.26-181,129.46-370.87,334.89-566.44l-.66-1.68c-202.16,192.23-347,379.11-337.8,557.66l-5.19-15.39C3989.59,251.91,4135.22,57.28,4345-140.48l-.66-1.68c-205.41,193.37-349.82,383.84-331.44,569q-1.92-5.78-3.82-11.59C3969,218.47,4114.55,19,4329-181l-.66-1.65c-208,193.81-351.87,387.2-325.52,578.33L4001,390c-52.87-205,92.72-409.41,311.84-611.52l-.66-1.68c-209.09,192.6-351.82,387.37-320.55,582.92-61.95-211.59,83.05-419.2,305.14-621.67l-.68-1.71c-225.24,205-371.9,415.37-305.74,630q3.88,12.6,7.89,25.15c.24.92.42,1.84.67,2.76q4.15,25.84,8.84,51.39.51,26,1.62,51.69-3.18,25.4-5.68,50.64-6.78,24.81-12.78,49.59-10.22,24.26-19.61,48.52-13.5,23.69-26.12,47.5-16.61,23.19-32.28,46.5-19.59,22.7-38.16,45.61-22.24,22.16-43.48,44.58-24.78,21.69-48.47,43.68-27.09,21.29-53.08,42.84-29.25,20.84-57.34,42.07-31.12,20.42-61.12,41.26-32.94,20.05-64.65,40.55-34.65,19.74-68,39.95-35.82,19.29-70.37,39.06-37.2,19-73.19,38.57-38.48,18.8-75.63,38.09-39.65,18.56-77.9,37.62-40.29,18.21-79.21,36.89-41.08,18-80.85,36.41-41.76,17.77-82.23,35.92-42.49,17.52-83.61,35.51-42.9,17.24-84.42,34.94-42.94,16.83-84.52,34.15-46.65,17.88-91.76,36.3-44.76,16.9-88.1,34.29-42.21,15.7-83.13,31.76-48.53,17.7-95.45,35.85-43,15.45-84.69,31.32C1356.4,1930.59,876.1,2373.19,583.26,2788.11l-2.5.65c.16.43.3.87.44,1.31a.12.12,0,0,1,0,0c.42.1,1.32.27,1.7.36s.6.13.9.18l.64-.89q42.43-11,84.23-21.87c-1,1.32-1.92,2.64-2.88,4l2.59-.54c1.05-1.46,2.08-2.91,3.14-4.37q42.24-11,83.85-21.95L754,2746.9a8,8,0,0,1,2.44.06l2-2.59q41.91-11,83.19-22c-1,1.25-2,2.5-2.93,3.76,1-.29,2-.6,2.94-.92.95-1.22,1.89-2.44,2.85-3.66q41.73-11.09,82.81-22.08c-1.7,2.08-3.38,4.16-5.07,6.24l3.12-.94,4.94-6.06q41.41-11.1,82.18-22.13l-3.33,3.94c.93-.28,1.88-.54,2.85-.74l3.38-4q41.13-11.12,81.58-22.18l-6.7,7.62,1.62-.44a7.47,7.47,0,0,1,5.55-5.08l2.6-3q40.88-11.16,81-22.24l-6.55,7.15c1.21-.48,2.43-.94,3.65-1.38l6-6.59q40.47-11.18,80.26-22.27l-2.3,2.4a7,7,0,0,1,2.41,0l3.15-3.29q40.13-11.2,79.53-22.33l-5.52,5.53q2.05-1,4.14-1.83c1.53-1.54,3.08-3.08,4.61-4.61q39.75-11.22,78.76-22.35l-3.3,3.15,3.07-.69,3.66-3.53q39.3-11.22,77.91-22.36l-3.76,3.45.12,0a7.44,7.44,0,0,1,2.78-.29l4.45-4.09q38.9-11.22,77.06-22.39l-2.44,2.14c1.33-.45,2.68-.87,4-1.25l2.18-1.9q38.41-11.22,76.1-22.37c-1.6,1.36-3.22,2.71-4.82,4.06,1.22-.37,2.45-.74,3.68-1.09l5-4.23q37.92-11.22,75.1-22.35l-3.86,3.1a14.74,14.74,0,0,1,2-.57,7.69,7.69,0,0,1,1.48-.16l4.54-3.66q37.35-11.22,74-22.34l-2.18,1.68a29.77,29.77,0,0,1,3.77-.83l2.75-2.12q36.78-11.16,72.79-22.25l-9.6,7.07a58.46,58.46,0,0,1,5.51-2l8.84-6.52q36.26-11.17,71.8-22.27c-2.19,1.56-4.41,3.11-6.6,4.67l.86-.35a8.58,8.58,0,0,1,3.32-.59l7.49-5.29q35.49-11.07,70.23-22.09c-3,2.06-6.09,4.12-9.13,6.17,2.38-1.1,4.78-2.18,7.2-3.19.27-.12.55-.22.83-.33l6.49-4.39q34.86-11,68.86-22l-7.27,4.69,6.1-2,7-4.57q33.38-10.74,66-21.4a36.6,36.6,0,0,1,8.24-2.91c.73-.16,1.47-.29,2.2-.41q31.82-10.44,63-20.77l-3,1.8c1.23-.4,2.48-.75,3.76-1.05l1.85-.42,4.5-2.69q32.31-10.71,63.9-21.37c-1.07.62-2.16,1.23-3.23,1.84,2.65-.88,5.31-1.76,8-2.62l3.45-2q22.83-7.71,45.3-15.38a83.41,83.41,0,0,1,7.82-3.07c5.43-1.79,11-3.8,16.6-5.12l.92-.51q24-8.2,47.55-16.4a296,296,0,0,1,31.94-11.17q23-8.07,45.57-16.08l-3.57,1.8,3.43-1.5a147.39,147.39,0,0,1,20.39-7.42q20.82-7.44,41.29-14.82c1.88-.86,3.77-1.67,5.7-2.41,7.43-2.83,15.14-4.92,22.49-7.93,4.42-1.81,8.86-3.32,13.34-4.75L2680,2161l-10.33,4.81c1.25-.32,2.49-.64,3.77-.92,1-.23,2.16-.43,3.29-.7l2.07-.95a53.72,53.72,0,0,1,7.29-3.85c1.5-.57,3-1.11,4.53-1.64,2.67-1.25,5.33-2.49,8-3.74q20.23-7.5,40.17-15l-3.65,1.63c3.77-1.41,7.6-2.69,11.52-3.73l1.75-.47,14.19-6.36,10.77-4.09c15.24-6.48,30.78-12.45,46.89-16.38q33.38-13.6,65.65-27.11c794.07-313.13,1126.13-579.4,1235.7-837.75,44.62-3.9,89.6-7.7,135.29-11.1,93-7.05,180.34-26.82,262-58.58,102.49-39.81,196-98.37,280.49-173.95Zm-791.2-571.82q-1.41-8-2.76-16l1.66,5c.37,1.85.69,3.7,1.1,5.55ZM4140,1187.75q-4,13.35-8.76,26.62c-26.09,2.46-51.77,5.09-77.49,7.69q5-13.12,9.29-26.2c25.54-2.78,51.11-5.52,77-8.15ZM2472.59,1538.3c11.85-3.86,24-7.64,35.94-11.45l.15-.07v0l-.15,0q-12.87,6.09-25.6,12.18c-12.41,3.81-24.87,7.55-37.15,11.34Q2459.09,1544.31,2472.59,1538.3Zm-40.72,16.46c-10.51,3.28-20.93,6.59-31.37,9.9,7.75-3.34,15.49-6.69,23.31-10,10.39-3.5,20.74-7,31.22-10.47l.19-.08v0l-.19.06C2447.26,1547.68,2439.56,1551.22,2431.87,1554.76ZM4014.06,578.89q.81,11.57,1.66,23.11-7.89,9.5-15.55,19,.79-11.34,1.69-22.68,6-9.72,12.2-19.43Zm-1.36-106.73c-.42,2.92-.82,5.85-1.22,8.78q-.33-9.12-.59-18.25h0C4011.49,465.85,4012.1,469,4012.7,472.16Zm1.52,7.84V480q1.83,9.45,3.77,18.91-2.58,8.19-5,16.36-.48-9.48-.9-19C4012.77,490.8,4013.48,485.42,4014.22,480Zm4.7,23.65,0,0q2.18,11,4.45,22-4.5,9.27-8.81,18.5-.68-10.87-1.25-21.8Q4016.06,513,4018.92,503.65Zm27.56,130q-12.18,9.54-24,19.12-.95-12.37-1.94-24.77,10.11-9.83,20.5-19.63v0Q4043.77,621,4046.48,633.62Zm11.81,56.4,0,0h0q2.67,12.93,5.2,25.85-17.64,8.91-34.85,17.9-.9-12.62-1.84-25.26,15.55-9.28,31.49-18.49Zm15.49,81.17q-21.09,8.37-41.72,16.9-.67-12.72-1.48-25.47,19.05-8.79,38.53-17.48l0,0Q4071.5,758.22,4073.78,771.19Zm4.58,27.83q-22.74,8.12-45,16.37-.56-12.74-1.22-25.51,20.73-8.58,41.91-17v0Q4076.29,786,4078.36,799Zm4.16,27.88q-24.36,7.88-48.2,15.81-.36-12.75-.89-25.55,22.37-8.28,45.2-16.44v0Q4080.69,813.87,4082.52,826.9Zm6.68,55.93q-27.39,7.3-54.23,14.75.09-12.83-.06-25.63,25.47-7.74,51.47-15.32l0,.08Q4088,869.9,4089.2,882.83Zm2.29,28.26q-28.77,6.95-57,14.11.33-12.84.45-25.68,26.94-7.47,54.42-14.75v0Q4090.61,898,4091.49,911.09Zm1.69,28.13q-30.16,6.72-59.72,13.52.63-12.84,1-25.69,28.35-7.17,57.23-14.15l0,.09Q4092.56,926.12,4093.18,939.22Zm.71,28.25q-31.41,6.36-62.22,12.95,1-12.87,1.65-25.73,29.67-6.87,59.89-13.55h0Q4093.73,954.34,4093.89,967.47Zm-.12,28.24q-32.58,6-64.57,12.35,1.34-12.87,2.34-25.74,30.91-6.57,62.4-13l0,0Q4094,982.6,4093.77,995.71ZM2659.84,1472.77c13.95-4.32,28.06-8.6,42.2-12.86l.25-.13,0,0-.29.09q-13.58,7.27-27,14.68c-14.75,4.21-29.26,8.46-43.75,12.75Q2645.48,1480,2659.84,1472.77Zm-37.2,17.15c-13.54,4-27.1,8-40.54,12.08q13.79-6.75,27.79-13.46,19.71-6.29,39.66-12.52l.3-.15,0,.05-.34.1Q2636,1482.94,2622.64,1489.92Zm1397.26-833,.14,1.92h.06q.87,11.42,1.73,22.7-13.53,9.38-26.71,18.8.69-12.06,1.42-24.14Q4008.06,666.56,4019.9,656.92Zm-23.18,17q.72-11.88,1.48-23.82,9.69-9.82,19.69-19.58.95,12.24,1.91,24.33Q4008.1,664.4,3996.72,674Zm27.35,36.19,0,.05h0q.9,12.52,1.84,25.07-17.1,8.91-33.77,18,.72-12.24,1.42-24.48,15.06-9.33,30.51-18.58Zm5.23,79.06q-20.49,8.47-40.48,17.07.84-12.35,1.61-24.69,18.48-8.91,37.4-17.69l0,0Q4028.6,776.62,4029.3,789.21Zm1.29,27.2q-22.1,8.19-43.69,16.53.93-12.39,1.78-24.75,20.12-8.67,40.7-17.18v0Q4030,803.75,4030.59,816.41Zm1.65,81.92q-26.61,7.36-52.69,14.93,1.38-12.48,2.6-25,24.76-7.84,50-15.52l0,.08Q4032.28,885.66,4032.24,898.33Zm-121,301.5q-2.37,6.15-4.9,12.34c-24.49,3.07-48.71,6.24-72.84,9.45q5.54-12.31,10.71-24.62c23.81-3.38,47.64-6.74,71.81-10q-2.37,6.42-4.84,12.86ZM2849.21,1407c15.32-4.5,30.86-8.91,46.38-13.33h0q-13.2,8.22-26.19,16.51c-16.18,4.35-32.12,8.77-48,13.21Q2835.2,1415.13,2849.21,1407Zm-34,18.12c-15.14,4.23-30.33,8.44-45.33,12.73q13.71-7.71,27.6-15.35,22.23-6.78,44.81-13.44l0,0h0l-.07,0Q2828.69,1417,2815.23,1425.11ZM3990.74,730.54v-.06l0,0,0,0q-.69,12.11-1.37,24.24-16.53,9-32.7,18.09,2.25-11.83,4.54-23.68Q3975.75,739.82,3990.74,730.54ZM3961.62,747q2.27-11.75,4.58-23.5,12.87-9.54,26.06-19l-1,17.17-.37,6.9Q3976.07,737.72,3961.62,747Zm-921.74,594.46q25.07-7,50.54-13.81h0q-12.33,9.13-24.55,18.31c-17.26,4.38-34.53,8.76-51.53,13.22Q3027.05,1350.28,3039.88,1341.44Zm-30.05,18.88q-25.07,6.62-49.77,13.34,13-8.54,26.21-17c16.19-4.68,32.41-9.38,48.86-13.92h0Q3022.45,1351.54,3009.83,1360.32Zm933.78-532.43v0q-2.31,12-4.64,23.93c-13.83,5.56-27.58,11.13-41.14,16.81l1.42-4.47,6-18.8Q3924.2,836.59,3943.61,827.89Zm-37.67,15.33q3.69-11.61,7.43-23.21,17.4-9,35.19-17.88l0,0q-2.27,11.88-4.51,23.72Q3924.79,834.51,3905.94,843.22ZM3233.5,1275.47q26.53-6.81,53.43-13.62l0,.05q-10.65,9.75-21.2,19.48c-18.52,4.39-36.73,8.83-54.94,13.37Q3222.11,1285.06,3233.5,1275.47Zm-26.23,20.18q-26.79,6.6-53.21,13.41,12-9.45,24-18.85c17.09-4.65,34.4-9.19,51.74-13.72l0,0Q3218.52,1286.09,3207.27,1295.65Zm670.81-372.84,0,0q-3.78,11.7-7.61,23.41-24.37,7.71-48.3,15.6L3830,944l2.2-5Q3854.91,930.81,3878.08,922.81Zm-45,14,10-22.85q21.34-8.37,43.08-16.61h0q-3.75,11.7-7.52,23.41Q3855.7,928.73,3833.11,936.81Zm-36.93,78.39v0q-5.16,11.52-10.37,23.08-27.33,7.07-54.16,14.31l12.4-22.52Q3769.88,1022.56,3796.18,1015.2Zm-50.92,12.74,12.39-22.51q24.61-7.75,49.68-15.34l0-.08v.07h0l-10.21,23.11Q3770.95,1020.46,3745.26,1027.94Zm-178.4,129.5c19-4.54,38.22-9,57.54-13.43l0,0-14.49,22.2c-19.93,4.27-39.6,8.64-59.2,13Q3558.81,1168.27,3566.86,1157.44ZM3548,1179.76c-19.41,4.35-38.57,8.8-57.66,13.28q8.83-10.69,17.72-21.3c18.49-4.54,37.2-9.08,56-13.62l.05,0,0,0h0Q3556.08,1168.91,3548,1179.76Zm20.63-24.68q8-10.78,16-21.55,27.57-7.07,55.66-13.94l-14.37,22.14C3606.7,1146.14,3587.56,1150.55,3568.64,1155.08Zm58.46-11.68q29.3-6.69,59.07-13.19l0-.06q-6.42,11.37-13,22.84c-20.33,4.15-40.62,8.31-60.62,12.58Zm1.48-2.28,14.45-22.2q28.32-6.89,57.16-13.7l0,0q-6.35,11.37-12.78,22.81Q3657.75,1134.46,3628.58,1141.12Zm15.91-24.5.46-.69,14-21.5q27.3-7.18,55.12-14.17h0q-6.3,11.36-12.65,22.74Q3672.73,1109.73,3644.49,1116.62Zm58.36-12q29.05-6.83,58.68-13.44l0,0q-5.49,11.68-11.09,23.42-30.4,6.33-60.4,12.87Q3696.48,1115.95,3702.85,1104.61Zm1.24-2.24,12.66-22.78q28-7.08,56.59-13.89h0q-5.37,11.64-10.8,23.28Q3733.08,1095.58,3704.09,1102.37Zm13.91-25q6.26-11.3,12.46-22.56,26.94-7.27,54.38-14.38h0q-5.22,11.55-10.49,23.11Q3745.93,1070.41,3718,1077.4Zm10.93-24.05q-26.58,7.19-52.66,14.53,7.16-11,14.34-21.9,25.11-7.62,50.69-15.1Zm-1.23,2.23h0q-6.18,11.24-12.41,22.52-27.63,7-54.86,14.11l14.36-22Q3701,1062.82,3727.7,1055.58Zm-70,37.3c-18,4.72-35.7,9.51-53.35,14.34q8.05-10.74,16.15-21.39,25.5-7.5,51.46-14.83Q3664.8,1081.92,3657.71,1092.88Zm-1.51,2.26L3642.61,1116l-.82,1.23q-27.93,6.83-55.38,13.86,8.06-10.8,16.15-21.55C3620.3,1104.7,3638.14,1099.89,3656.2,1095.14Zm-72.62,36.75q-27.15,6.94-53.81,14,8.85-10.5,17.79-21,25.8-7.41,52.14-14.62Q3591.63,1121.09,3583.58,1131.89Zm-1.81,2.38.07-.09,0,.08h-.05q-8,10.74-15.95,21.47-28.11,6.73-55.73,13.61,8.77-10.5,17.6-20.95Q3554.51,1141.26,3581.77,1134.27Zm-57.07,14.93h0q-8.73,10.4-17.48,20.86c-18.28,4.57-36.28,9.24-54.28,13.93q9.57-10.27,19.2-20.48,26.09-7.21,52.56-14.31l0,0Zm-19.54,23.3.05-.06,0,.06h0q-8.84,10.55-17.66,21.23-28.26,6.63-56.05,13.43,9.54-10.35,19.12-20.66C3468.64,1181.79,3486.77,1177,3505.16,1172.5Zm-76.74,35.35q-27.39,6.7-54.42,13.54,10.17-10,20.42-20c17.56-4.77,35.21-9.53,53.07-14.19h0Q3438,1197.51,3428.42,1207.85Zm-2.26,2.49,0,0v0h0q-9.39,10.23-18.75,20.53c-19,4.37-37.69,8.82-56.37,13.36q10.14-10.14,20.37-20.23C3389.49,1219.41,3407.79,1214.88,3426.16,1210.34Zm3-.74q27.95-6.86,56.34-13.53l0,0v0h0q-8.73,10.58-17.5,21.21c-19.31,4.26-38.68,8.53-57.68,12.89Q3419.77,1219.8,3429.2,1209.6Zm59.22-14.19c19.18-4.5,38.43-9,57.93-13.36l-16.15,21.85q-29.92,6.28-59.32,12.75Q3479.64,1206,3488.42,1195.41Zm60.66-13.91c19.65-4.4,39.39-8.77,59.38-13l.06-.09v.08h-.05q-7.29,11.15-14.58,22.35c-20.49,4.12-40.75,8.33-60.91,12.57Zm62.11-13.65c20.06-4.29,40.4-8.48,60.8-12.64l.05-.09v.08h0q-6.48,11.31-13.07,22.76c-21.06,4-41.76,8.17-62.46,12.33Q3603.87,1179.05,3611.19,1167.85Zm63.45-13.2q30.95-6.27,62.36-12.38l.05-.08,0,.08h0q-5.73,11.64-11.63,23.4c-21.41,3.87-42.79,7.79-63.86,11.81Q3668.13,1166,3674.64,1154.65Zm1.23-2.21q6.52-11.46,12.93-22.81,30.06-6.57,60.61-12.93l0-.06q-5.6,11.68-11.38,23.45Q3706.69,1146.17,3675.87,1152.44Zm76.15-36.27q30.78-6.43,62.15-12.65l0-.06q-4.77,12-9.77,24-32.14,5.94-63.78,12.08Q3746.42,1127.85,3752,1116.17Zm1-2.17q5.61-11.73,11.08-23.4c19.91-4.45,39.93-8.85,60.2-13.16l0,0q-4.59,11.9-9.3,23.93Q3783.79,1107.63,3753.06,1114Zm12.1-25.57q5.46-11.7,10.83-23.35,28.8-6.91,58.08-13.61h0q-4.38,11.91-8.91,23.84C3805,1079.62,3785,1084,3765.16,1088.43Zm11.84-25.51q5.31-11.6,10.54-23.17,27.69-7.14,55.86-14.11h0q-4.21,11.86-8.53,23.75Q3805.65,1056,3777,1062.92Zm11.48-25.31q5.22-11.61,10.39-23.15,26.57-7.41,53.57-14.65h0q-4.09,11.86-8.29,23.72Q3816,1030.47,3788.48,1037.61Zm11.33-25.22q5.16-11.57,10.26-23.13,25.32-7.63,51.1-15.13l0-.08v.07h0q-4,11.8-8,23.7Q3826.23,1005,3799.81,1012.39ZM3811,987.05q5.13-11.5,10.14-23,24-7.95,48.57-15.71v0q-3.89,11.8-7.84,23.65Q3836.21,979.46,3811,987.05Zm16.36-42.51-8,18.26q-23.68,7.82-46.91,15.76,6.17-11.14,12.35-22.25,22.08-8.2,44.56-16.31Zm-9,20.39v0q-5,11.44-10.09,22.9-24.95,7.54-49.42,15.25,6.14-11.16,12.31-22.3Q3794.57,972.8,3818.4,964.93Zm-62.26,39q-24.27,7.65-48,15.44,7.16-10.79,14.38-21.55,22.71-8.1,45.82-16Zm-1.28,2.4-12.28,22.32-.07.13q-25.4,7.41-50.39,15,7.2-11,14.43-21.87Q3730.46,1014,3754.86,1006.33Zm-51.28,16.55,0,0q-7.14,10.8-14.3,21.74-24.67,7.52-48.88,15.16,8.13-10.62,16.34-21.17,23.19-8,46.84-15.73l.08-.12Zm-15.83,24q-7.14,10.92-14.3,21.81-25.8,7.29-51.14,14.75,8.07-10.65,16.21-21.27Q3662.91,1054.42,3687.75,1046.84Zm-52.26,16.3h0q-8.07,10.55-16.15,21.18-25,7.37-49.59,14.86,9-10.34,18-20.61,23.66-7.8,47.74-15.43l0-.06Zm-18,23.56h0L3601.4,1108q-26.1,7.17-51.8,14.51,8.88-10.43,17.89-20.81Q3592.29,1094.12,3617.49,1086.7Zm-70.82,36.65q-25.32,7.26-50.23,14.65,9.72-10.11,19.53-20.19,24-7.63,48.38-15.14h0Q3555.48,1113,3546.67,1123.35Zm-2.15,2.42v0l-17.74,20.81q-26.34,7-52.21,14.19,9.6-10.17,19.32-20.3Q3519,1133.09,3544.52,1125.77Zm-53.92,15.82q-9.63,10.08-19.24,20.19c-17,4.72-33.89,9.47-50.6,14.29q10.3-9.84,20.74-19.6,24.32-7.54,49.1-14.93Zm-21.69,22.83.06,0q-9.61,10.14-19.12,20.39-26.54,6.95-52.69,14,10.34-10,20.75-20C3434.74,1174,3451.79,1169.2,3468.91,1164.42Zm-54.51,15.48h0q-10.32,9.87-20.58,19.83-25.71,7-51,14.13,11-9.73,22.18-19.4,24.53-7.35,49.4-14.56l.05,0Zm-23.31,22.43h0l-20.38,19.92q-26.64,6.78-52.82,13.72,10.8-9.71,21.69-19.35Q3365.14,1209.39,3391.09,1202.33Zm-23,22.53,0,0v0h0q-10.18,10-20.21,20.11c-18.41,4.41-36.61,9-54.73,13.48q10.8-9.92,21.8-19.79C3332.54,1234,3350.31,1229.4,3368.14,1224.86Zm-56.61,14.74-.09,0q-10.86,9.81-21.61,19.71c-17.78,4.43-35.49,9-53,13.5q11.36-9.54,22.82-19c17.16-4.76,34.34-9.51,51.79-14.17l.09-.08ZM3290.29,1261c18.24-4.54,36.56-9.15,55.1-13.61l0,0q-10.12,10.13-20.18,20.27c-18.8,4.28-37.65,8.52-56.18,12.89Q3279.64,1270.8,3290.29,1261Zm58.22-14.35c18.77-4.53,37.57-9,56.65-13.43l0,0q-9.49,10.44-19,20.89-29.19,6.33-57.91,12.85Q3338.37,1256.82,3348.51,1246.68Zm59.58-14.15c19.17-4.39,38.59-8.67,58-13l0,.05q-8.7,10.56-17.47,21.17c-20.07,4.17-39.82,8.46-59.56,12.75Q3398.54,1243,3408.09,1232.53Zm60.82-13.58q29.58-6.5,59.58-12.82l-.06.08L3512.36,1228c-20.44,4-40.8,8.12-60.93,12.3Q3460.18,1229.55,3468.91,1219Zm61.75-12.66.53-.73c20.24-4.26,40.57-8.5,61.14-12.62l0,0q-7.4,11.19-14.86,22.4c-20.95,4-41.82,7.95-62.45,12Zm64.31-13.88c20.76-4.17,41.55-8.33,62.66-12.37l0,0q-6.69,11.49-13.54,23c-21.51,3.9-42.79,7.83-64,11.84Q3587.59,1203.62,3595,1192.41Zm65.26-12.87c21.13-4,42.58-7.94,64.05-11.84l0,0q-5.92,11.67-12,23.36c-22.06,3.75-43.83,7.62-65.53,11.51Q3653.55,1191,3660.23,1179.54Zm66.62-12.32q32.57-5.91,65.63-11.58l0,.09q-5.22,12-10.66,23.92c-22.47,3.62-44.9,7.24-67,11Q3721,1178.91,3726.85,1167.22Zm1.07-2q5.92-11.75,11.66-23.43,31.74-6.16,64-12.11a.36.36,0,0,1,0-.09l0,.08h0q-4.95,11.94-10.2,24Q3760.35,1159.31,3727.92,1165.19Zm78.3-36.15c21.8-4,43.71-8,65.89-11.87q-4.14,12.33-8.64,24.55-34,5.6-67.44,11.35Q3801.22,1141,3806.22,1129Zm.86-2q5-12,9.74-24c21.16-4.19,42.44-8.35,64-12.4l0,0q-3.9,12.27-8.06,24.62C3850.68,1119.09,3828.83,1123,3807.08,1127Zm10.56-26.18q4.77-12,9.33-24,30.69-6.54,62-12.87-3.58,12.26-7.47,24.51C3860,1092.53,3838.77,1096.68,3817.64,1100.85Zm10.14-26.1q4.56-12,8.94-23.91,29.67-6.75,59.87-13.35h0q-3.37,12.2-7,24.41C3868.78,1066.12,3848.23,1070.41,3827.78,1074.75Zm9.73-26q4.38-11.94,8.59-23.82,28.53-7.08,57.56-13.89h0q-3.15,12.18-6.48,24.41Q3867.06,1042,3837.51,1048.79Zm9.3-25.87q4.21-11.94,8.3-23.82,27.36-7.3,55.2-14.43h0q-3,12.18-6.11,24.4Q3875.22,1015.91,3846.81,1022.92Zm9-25.8q4-11.94,8.06-23.82,26.1-7.53,52.68-14.93-2.8,12.14-5.74,24.38Q3883,989.85,3855.82,997.12Zm8.78-25.93q4-11.87,7.86-23.71,24.76-7.79,50-15.44v0q-2.67,12.16-5.43,24.26Q3890.6,963.67,3864.6,971.19Zm8.54-25.83q3.86-11.8,7.67-23.55,23.39-8.09,47.27-16l0,.08q-2.54,12.12-5.15,24.13Q3897.77,937.59,3873.14,945.36Zm8.28-25.55q3.78-11.76,7.55-23.5,22-8.26,44.43-16.49h0q-2.44,12-5,24.11Q3904.69,911.78,3881.42,919.81Zm8.24-25.55q3.75-11.75,7.48-23.47,20.51-8.53,41.42-16.95l0,0q-2.37,12-4.79,24Q3911.52,886,3889.66,894.26Zm7-29.31-1.56,4.89q-20.13,8.43-39.89,17,5-11.26,10.07-22.61,18.41-8.79,37.18-17.53Zm-2.29,7,0,0,0,0h0q-3.69,11.64-7.42,23.34-21.62,8.19-42.79,16.5l10-22.69Q3874,880.5,3894.32,872ZM3851.2,890.4h0q-5,11.26-9.92,22.5-20.94,8.28-41.48,16.68,6.2-11,12.46-22,19.29-8.65,38.94-17.2l0,0Zm-10.91,24.68h0q-5,11.37-10,22.74-22.32,8-44.22,16.18,6.16-11.06,12.38-22.09Q3819.15,923.42,3840.29,915.08Zm-57.09,40q-21.63,8.05-42.79,16.26,7.23-10.68,14.56-21.3,20-8.52,40.48-16.89h0Q3789.3,944.12,3783.2,955.08Zm-1.28,2.28,0,0q-6.16,11.05-12.26,22.08-23,7.88-45.46,15.88,7.24-10.77,14.55-21.55Q3760.11,965.51,3781.92,957.36Zm-46.35,17.7q-7.26,10.7-14.4,21.41-22.22,7.9-44,16,8.22-10.42,16.56-20.81,20.71-8.39,41.87-16.59Zm-16.06,23.82v0q-7.17,10.74-14.32,21.48-23.49,7.73-46.49,15.58,8.16-10.5,16.4-21Q3697.12,1006.91,3719.51,998.88Zm-63.94,38.18q-22.72,7.71-45,15.66,9.09-10.18,18.3-20.29,21.33-8.16,43-16.22Q3663.68,1026.64,3655.57,1037.06Zm-2.06,2.67.1-.13,0,.11-.07,0q-8.1,10.43-16.16,21-23.88,7.56-47.35,15.29,9-10.27,18.16-20.48Q3630.62,1047.57,3653.51,1039.73Zm-48.78,17h0q-9,10.11-18,20.27-23.09,7.62-45.77,15.36,9.83-9.91,19.83-19.76,21.76-7.93,43.91-15.87l.05-.06Zm-20.3,22.94.06-.06v0l-.06,0q-9,10.21-17.84,20.51-24.21,7.41-48,15,9.76-10,19.64-20Q3561.12,1087.35,3584.43,1079.66Zm-49.79,16.75-.07,0q-9.77,9.87-19.44,19.87-23.39,7.44-46.38,15,10.52-9.69,21.15-19.28,22.13-7.87,44.67-15.61l.07-.07Zm-22.21,22.51h0q-9.73,10-19.41,20.06-24.51,7.3-48.63,14.74,10.47-9.81,21.09-19.56Q3488.79,1126.48,3512.43,1118.92Zm-71.63,36q-23.67,7.29-46.93,14.75,11.19-9.5,22.51-18.9,22.45-7.7,45.28-15.27h0Q3451.22,1145.12,3440.8,1154.88Zm-2.92,2.7v.05q-10.37,9.73-20.6,19.47-24.72,7.14-49,14.44,11-9.51,22.1-19Q3413.87,1165,3437.88,1157.58Zm-73.4,35.08c-16,4.81-31.72,9.7-47.43,14.6q11.64-9.19,23.42-18.34,22.74-7.59,45.86-15h0Q3375.34,1183.29,3364.48,1192.66Zm-3.37,3,0,0,0,0h0q-11,9.6-22,19.24-24.87,7-49.29,14.17,11.58-9.36,23.31-18.67C3329,1205.45,3345,1200.51,3361.11,1195.63Zm-25.14,22q-10.77,9.54-21.5,19.21c-17.33,4.61-34.43,9.32-51.43,14q11.49-9.48,23.1-18.89Q3310.86,1224.78,3336,1217.66Zm-76.69,34.3q-25,6.94-49.61,14,12.12-9.23,24.41-18.38c15.82-4.84,31.89-9.6,48-14.35h0Q3270.59,1242.57,3259.28,1252Zm-3.57,2.91.11-.08v0l-.11,0q-11.34,9.41-22.6,18.94-25.86,6.72-51.29,13.61,11.82-9.21,23.82-18.35Q3230.5,1261.92,3255.71,1254.87Zm-54.38,15.45h0q-11.81,9.06-23.52,18.16c-16.83,4.58-33.41,9.27-50,14q12.45-9,25.09-17.91,24-7.17,48.43-14.2l0,0ZM3174,1291.23l0,.09q-12,9.35-23.88,18.71c-17.18,4.41-34.4,8.78-51.35,13.31q12.24-9,24.61-17.95C3140.22,1300.64,3157,1295.88,3174,1291.23Zm-55.07,15.5q-12.27,8.94-24.44,17.85c-16.84,4.45-33.47,9.08-50.05,13.61q12.76-8.76,25.68-17.45,24.18-7.12,48.81-14.1Zm-24.25,19.68c17.13-4.56,34.51-9,51.89-13.52l0,0q-11.7,9.3-23.24,18.58c-18,4.39-35.74,8.84-53.47,13.38Q3082.27,1335.62,3094.72,1326.41Zm55.77-14.49q26.66-6.9,53.67-13.61l.05.06q-11.25,9.64-22.37,19.33c-18.36,4.28-36.65,8.59-54.74,13Q3138.73,1321.26,3150.49,1311.92Zm57.19-14.46q27.41-6.8,55.27-13.46l0,0-21.35,20q-28.41,6.33-56.35,12.82Q3196.43,1307.12,3207.68,1297.46Zm58.56-14.26c18.65-4.4,37.6-8.7,56.52-13l0,.09-19.91,20.16c-19.59,4.21-38.84,8.54-58.11,12.85Q3255.47,1293.22,3266.24,1283.2Zm59.58-13.68q28.88-6.54,58.2-12.93l.05.09-18.85,20.81c-19.91,4.08-39.78,8.17-59.4,12.37Q3315.81,1279.66,3325.82,1269.52Zm61.1-13.55c19.82-4.31,39.66-8.65,59.82-12.83l-17.61,21.57q-30.78,6-61,12.19Q3377.52,1266.39,3386.92,1256Zm62.58-13.39c20.2-4.18,40.64-8.27,61.15-12.34l0,0q-8.07,10.9-16.24,21.77c-21.1,3.94-41.85,8-62.62,12.08Zm63.83-12.87q31.13-6.12,62.67-12.08l.05,0q-7.44,11.21-15,22.41c-21.44,3.79-42.82,7.63-63.94,11.55Zm65.29-12.57q31.85-6,64.23-11.87l.05,0q-6.81,11.51-13.83,23c-22,3.71-43.82,7.46-65.45,11.28Q3571.2,1228.34,3578.62,1217.14Zm66.8-12.33c21.76-3.9,43.59-7.78,65.71-11.55l0,0q-6.13,11.75-12.51,23.49c-22.57,3.61-44.79,7.35-67,11.09Q3638.62,1216.33,3645.42,1204.81Zm68.34-12c22.11-3.75,44.62-7.38,67.11-11q-5.46,12-11.18,24-34.5,5.19-68.41,10.59Q3707.61,1204.6,3713.76,1192.83Zm69.72-11.43q34.26-5.52,69.1-10.81h0q-4.83,12.29-10,24.63c-23.58,3.31-47.07,6.7-70.3,10.21Q3778,1193.4,3783.48,1181.4Zm.93-2.2q5.46-12,10.66-24,33.51-5.79,67.6-11.34-2.93,7.93-5.92,15.88l0,0c-1.1,2.91-2.25,5.83-3.37,8.65Q3818.63,1173.7,3784.41,1179.2Zm75-20.09q3-7.81,5.85-15.62c22.87-3.73,45.76-7.44,69-11h0q-3.78,12.57-8,25.17c-23.7,3.4-47.05,6.93-70.37,10.48C3857.05,1165.11,3858.23,1162.12,3859.36,1159.11Zm6.66-17.77q4.47-12.33,8.66-24.62c22.33-3.9,44.64-7.78,67.33-11.52l0,0q-3.36,12.57-7.1,25.11C3911.67,1133.91,3888.83,1137.62,3866,1141.34Zm9.33-26.61q4.16-12.32,8.06-24.59,32.43-6.14,65.49-12l.07,0q-3,12.54-6.45,25.14C3919.89,1107,3897.59,1110.84,3875.35,1114.73Zm8.72-26.7q3.87-12.3,7.51-24.58,31.5-6.33,63.5-12.48h0q-2.7,12.54-5.72,25.09C3927.41,1080,3905.68,1084,3884.07,1088Zm8.15-26.66q3.6-12.22,7-24.47,30.42-6.6,61.37-13h0q-2.37,12.52-5.05,25Q3923.58,1055.05,3892.22,1061.37Zm7.59-26.46q3.36-12.23,6.54-24.45,29.27-6.9,59.05-13.6h0q-2.07,12.55-4.4,25Q3930.13,1028.3,3899.81,1034.91Zm7-26.51Q3910,996.19,3913,984q28.08-7.15,56.68-14.13h0q-1.84,12.5-3.91,25Q3936,1001.52,3906.85,1008.4Zm6.61-26.38q3-12.21,5.77-24.39,26.8-7.43,54.11-14.68v0h0q-1.59,12.48-3.41,25Q3941.46,974.88,3913.46,982Zm6.23-26.43q2.79-12.18,5.46-24.36,25.42-7.68,51.43-15.21v0q-1.41,12.47-3,24.92Q3946.38,948.19,3919.69,955.59Zm5.91-26.4q2.64-12.15,5.2-24.31c16-5.29,32.26-10.52,48.61-15.72l0,.08q-1.23,12.42-2.6,24.89Q3951,921.62,3925.6,929.19Zm5.54-26.21q2.57-12.08,5-24.16,22.59-8.24,45.69-16.32h0q-1.07,12.42-2.32,24.84Q3955.07,895,3931.14,903Zm5.37-26.17q2.43-12.06,4.79-24.13,21.09-8.48,42.67-16.82-.91,12.4-2,24.72Q3959,868.64,3936.51,876.81Zm5.22-26.06q2.34-12.06,4.66-24.1,19.53-8.68,39.53-17.28h0q-.84,12.32-1.76,24.62Q3962.73,842.31,3941.73,850.75Zm5.07-26.1q2.28-12,4.57-23.93,17.94-9,36.3-17.8l0,0q-.79,12.3-1.57,24.52Q3966.21,816,3946.8,824.65Zm4.93-25.87,1.76-9.24,2.78-14.61q16.3-9.16,32.95-18.23v-.07l0,0-.05,0q-.7,12.19-1.49,24.42Q3969.55,789.88,3951.73,798.78Zm6.54-47.71q-2.23,11.68-4.44,23.37-16,9.07-31.59,18.15,3.69-11.43,7.5-22.83,14.09-9.39,28.53-18.69l0-.06,0,0Zm-4.82,25.46-2.66,14-1.84,9.7q-17.64,8.79-34.88,17.71,3.69-11.52,7.44-23Q3937.29,785.66,3953.45,776.53Zm-35,20.13q-3.69,11.36-7.3,22.76-17,8.82-33.69,17.77,5.05-11.12,10.18-22.19,15.22-9.21,30.81-18.34l0-.09,0,0Zm-8,24.88,0,0q-3.69,11.52-7.33,23-18.61,8.63-36.82,17.35,5-11.21,10.09-22.36Q3893.21,830.48,3910.44,821.54Zm-37.22,19.69q-5,11.06-10,22.12-18,8.65-35.57,17.42,6.26-10.77,12.62-21.55,16.29-9.08,32.94-18Zm-11,24.5h0l0,0q-5,11.19-9.91,22.38-19.49,8.43-38.56,17,6.21-10.89,12.52-21.75Q3844,874.49,3862.17,865.73Zm-51.57,40.82q-18.78,8.44-37.21,17,7.37-10.49,14.84-21,17.2-8.86,34.74-17.63Q3816.7,895.74,3810.6,906.55Zm-1.47,2.46,0-.06,0,0-.07,0q-6.18,10.83-12.3,21.8-20.23,8.28-40.07,16.69,7.3-10.62,14.72-21.18Q3790.1,917.61,3809.13,909ZM3768,928q-7.29,10.41-14.46,20.91-19.5,8.26-38.58,16.64,8.32-10.18,16.79-20.32,18-8.67,36.25-17.23l.05-.07,0,0Zm-16.27,23.44h0q-7.26,10.56-14.47,21.16-20.88,8.12-41.38,16.38,8.31-10.35,16.71-20.64Q3732,959.81,3751.71,951.4Zm-59.25,39q-20.1,8.1-39.81,16.32,9.21-9.91,18.57-19.78,18.68-8.59,37.75-17Q3700.68,980.1,3692.46,990.38Zm-2.14,2.62,0,0q-8.23,10.31-16.36,20.59-21.43,7.93-42.43,16,9.14-10,18.4-20Q3669.91,1001.26,3690.32,993Zm-44.27,18.23q-9.09,9.87-18.13,19.74-20.58,7.92-40.79,16,10-9.62,20.07-19.17,19.28-8.32,38.88-16.55Zm-20.6,22.5-.11.08q-9.14,10.05-18.05,20.07-21.89,7.75-43.36,15.69,10-9.84,20.07-19.6Q3604.55,1041.8,3625.45,1033.73Zm-45.7,18q-9.95,9.64-19.78,19.34-21,7.76-41.54,15.55,10.71-9.39,21.55-18.74,19.76-8.18,39.88-16.23ZM3557,1074.06q-9.82,9.72-19.6,19.51-22.23,7.62-44.12,15.38,10.59-9.53,21.34-19Q3535.59,1082,3557,1074.06Zm-46.75,17.65-.12,0q-10.51,9.29-20.89,18.68-21.32,7.61-42.31,15.3,11.25-9.08,22.66-18.15,20.08-8,40.54-15.83l.12-.1Zm-24.37,21.71h0q-10.53,9.52-21,19.1-22.51,7.43-44.62,15,11.17-9.26,22.49-18.47Q3464.1,1121.16,3485.85,1113.42Zm-47.75,17.36q-11.13,9.08-22.24,18.28-21.53,7.38-42.69,14.88,11.72-8.85,23.6-17.63,20.47-7.86,41.33-15.56Zm-26.1,21.47h0q-11.16,9.32-22.24,18.65-22.74,7.3-45.12,14.74,11.76-9.08,23.76-18.15Q3390,1159.81,3412,1152.25Zm-72,35q-21.78,7.24-43.16,14.61,12.3-8.73,24.79-17.4,20.64-7.62,41.67-15.11h0Q3351.6,1178.26,3340,1187.25Zm-4.18,3.24v0q-11.61,9-23.06,18.06c-15.34,4.8-30.49,9.66-45.58,14.55q12.21-8.87,24.58-17.68Q3313.61,1197.9,3335.81,1190.49Zm-27,21.26.06,0,0,0h0q-11.59,9.24-23.09,18.55c-15.87,4.67-31.74,9.35-47.37,14.1q12-9,24.19-17.82Q3285.49,1219.09,3308.82,1211.75Zm-51.21,16.42h-.05q-12,8.79-23.9,17.68-23.13,7.1-45.93,14.3,12.54-8.62,25.25-17.18,22.09-7.47,44.58-14.8l.07,0Zm-28.24,20.88q-12.09,9-24.06,18.17c-16,4.62-32,9.26-47.8,14q12.57-8.85,25.29-17.64Q3205.9,1256.24,3229.37,1249.05Zm-76.73,33.61c-15.34,4.59-30.65,9.19-45.78,13.85q12.78-8.41,25.78-16.71c14.89-4.92,29.84-9.82,45-14.64Q3165,1273.88,3152.64,1282.66Zm-4.82,3.39.15-.1v0l-.16,0q-12.36,8.76-24.55,17.65-24.22,6.85-48.07,13.8,13-8.71,26.21-17.4C3116.73,1295.37,3132.28,1290.71,3147.82,1286.05Zm-52.12,15.83-.07,0q-12.89,8.5-25.62,17.1c-15.23,4.47-30.52,8.92-45.52,13.45q13.08-8.19,26.38-16.35,22.2-7.14,44.76-14.2l.07,0ZM3065,1322.26l.05.09q-12.72,8.58-25.35,17.15-24.2,6.8-48,13.61,13.29-8.55,26.76-17C3033.8,1331.43,3049.38,1326.79,3065,1322.26Zm-78.8,32.42c-15.2,4.38-30.46,8.75-45.46,13.2q13.41-8.13,27-16.07,22.18-7,44.69-13.84l0,.09Zm-5.34,3.53h.05q-12.91,8.4-25.82,16.86c-16.16,4.41-32.1,8.87-48,13.41q13.55-8.38,27.29-16.67C2949.71,1367.22,2965.26,1362.75,2980.83,1358.21Zm-79.57,31.91c-15.14,4.29-30.35,8.55-45.35,12.91q13.55-7.87,27.29-15.68,22.23-6.81,44.74-13.61h0Q2914.59,1381.91,2901.26,1390.12Zm.14,1.89c16.17-4.64,32.35-9.17,48.79-13.71h0q-13.05,8.67-25.94,17.37-25,6.49-49.61,13.11Q2887.93,1400.37,2901.4,1392Zm53.82-15.06q25-6.78,50.28-13.46h0q-12.63,8.9-25.08,17.92c-17.2,4.3-34.36,8.61-51.36,13Q2942,1385.65,2955.22,1377Zm54.88-14.69c17.19-4.52,34.59-9,52-13.39l0,0h0l0,0q-12,9-23.77,18.22c-18.13,4.36-35.86,8.85-53.68,13.32Q2997.31,1371.26,3010.1,1362.26Zm56.14-14.43c17.9-4.54,35.68-9.08,53.84-13.5l0,0h.07l-.1,0q-11.73,9.53-23.25,19.13c-18.25,4.21-36.59,8.39-54.59,12.69Q3054.15,1356.91,3066.24,1347.83Zm57.61-14.4c18.16-4.41,36.55-8.73,55-13l0,0h.07l-.1,0q-11.07,9.7-22,19.46c-19,4.2-37.77,8.48-56.46,12.78Q3112.06,1343,3123.85,1333.43Zm58.42-13.9q28.14-6.54,56.7-12.94-10.48,9.95-20.94,19.92c-19.5,4.14-38.79,8.36-58,12.6Q3171.09,1329.3,3182.27,1319.53Zm59.86-13.6c19.38-4.35,38.73-8.72,58.43-13h0q-10.07,10.29-20.12,20.7c-19.86,4-39.74,8.06-59.33,12.19Q3231.62,1315.87,3242.13,1305.93Zm61.39-13.51c19.68-4.26,39.63-8.38,59.62-12.47l0,0,0,0h0q-9.3,10.41-18.62,21c-20.6,4-40.84,8.11-61.11,12.23Q3293.45,1302.74,3303.52,1292.42Zm62.5-13.07q30.39-6.19,61.22-12.24l-17.54,21.49c-20.91,3.87-41.78,7.76-62.39,11.74Q3356.66,1289.82,3366,1279.35Zm63.95-12.78c20.84-4.08,41.66-8.17,62.84-12.13l0,0-16.5,22.24q-32.22,5.63-63.91,11.47Zm65.48-12.61c21.12-3.94,42.62-7.77,64.12-11.59l0,0,0,0h0q-7.47,11.16-15.09,22.38c-22.11,3.7-43.76,7.56-65.52,11.4Zm66.74-12q32.61-5.79,65.62-11.35h0q-6.93,11.46-14,23.06c-22.32,3.54-44.72,7-66.72,10.71Q3554.68,1253.13,3562.19,1241.93Zm68.19-11.78c22.27-3.75,44.54-7.51,67.17-11.13l0,0q-6.36,11.79-12.92,23.67-34.4,5.19-68.27,10.55Q3623.45,1241.66,3630.38,1230.15Zm69.72-11.52q34-5.4,68.55-10.61l0,0q-5.7,12-11.76,24.09c-23.49,3.27-46.62,6.74-69.74,10.21Q3693.76,1230.44,3700.1,1218.63Zm71.11-11.06c23.27-3.4,46.81-6.81,70.44-10.21l.06,0q-5.17,12.27-10.75,24.58c-23.93,3.18-47.91,6.35-71.48,9.67Q3765.48,1219.57,3771.21,1207.57Zm73.87-12.74q5.18-12.32,10-24.63c23.36-3.55,46.76-7.08,70.5-10.49h0q-4.2,12.55-8.82,25.14C3892.66,1188.09,3868.84,1191.43,3845.08,1194.83Zm83-35.47q35.67-5.13,72-10h0q-3.57,12.84-7.7,25.67-36.83,4.65-73.15,9.5Q3923.93,1171.93,3928.12,1159.36Zm.7-2.09q4.17-12.6,7.95-25.17,35-5.37,70.58-10.51h0q-3.09,12.84-6.67,25.71Q3964.47,1152.17,3928.82,1157.27Zm8.61-27.31q3.77-12.59,7.16-25.18,34.17-5.61,68.95-11v0q-2.58,12.85-5.67,25.67Q3972.35,1124.6,3937.43,1130Zm7.68-27.14q3.41-12.6,6.41-25.17,33.3-5.88,67.14-11.55l0,0q-2.17,12.85-4.78,25.76Q3979.2,1097.15,3945.11,1102.82Zm7-27.25q3-12.57,5.7-25.11,32.31-6.18,65.18-12.14-1.78,12.86-3.88,25.72Q3985.27,1069.68,3952.09,1075.57Zm6.13-27.15q2.66-12.56,5.05-25.09,31.2-6.47,63-12.72h0q-1.36,12.84-3.05,25.69Q3990.43,1042.26,3958.22,1048.42Zm5.43-27.09q2.35-12.54,4.46-25.08,30.09-6.75,60.68-13.27h0q-1,12.82-2.28,25.67Q3994.79,1014.89,3963.65,1021.33Zm4.76-27.08q2.09-12.51,3.92-25.06,28.86-7.05,58.26-13.85h0Q4030,968.19,4029,981,3998.41,987.52,3968.41,994.25Zm4.21-27q1.83-12.56,3.43-25,27.57-7.29,55.64-14.43-.37,12.87-1,25.65Q4001.37,960.19,3972.62,967.2Zm3.67-27q1.59-12.47,3-25,26.19-7.56,52.9-15v0q-.09,12.81-.45,25.52Q4003.74,932.92,3976.29,940.19Zm6-53.69q1.22-12.48,2.28-25,23.28-8.12,47-16.06h0q.36,12.76.51,25.55Q4007,878.68,3982.3,886.5Zm2.42-26.86q1-12.37,2-24.85,21.74-8.37,43.91-16.61l0,0q.53,12.75.87,25.43Q4007.86,851.56,3984.72,859.64Zm5.76-79.87q.75-12.28,1.49-24.63,16.82-9.14,34-18.15.92,12.6,1.68,25.21Q4008.85,770.93,3990.48,779.77Zm3.19-53,.36-6.32,1-18q13.32-9.54,27-19,.93,12.48,1.92,24.93Q4008.67,717.55,3993.67,726.8Zm.2-50.42q-11.19,9.43-22.08,18.9,2.31-11.46,4.7-22.81,9.28-9.75,18.83-19.42h0Q3994.59,664.74,3993.87,676.38Zm-.16,2.25h.05q-.72,11.89-1.45,23.76-13,9.35-25.72,18.74,2.28-11.61,4.63-23.22Q3982.31,688.25,3993.71,678.63Zm-30.09,44.72q-12.48,9.25-24.65,18.58,3.77-11.1,7.64-22.19,10.63-9.6,21.53-19.13h.05Q3965.91,712,3963.62,723.35Zm-.41,2.34q-2.25,11.58-4.51,23.15-14.25,9.18-28.17,18.41,3.75-11.24,7.56-22.58Q3950.51,735.15,3963.21,725.69Zm-35.77,43.63q-13.67,9.07-27,18.23,5.1-10.77,10.33-21.55,11.88-9.43,24.06-18.83Q3931.1,758.24,3927.44,769.32Zm-.87,2.53,0-.07,0,0,0,0q-3.71,11.22-7.33,22.49-15.4,9-30.4,18.06,5.07-11,10.26-21.92Q3912.69,781.14,3926.57,771.85Zm-31,21q-5.06,10.7-10,21.46-14.7,8.89-29.09,17.86,6.32-10.43,12.76-20.87,13-9.26,26.33-18.45l0-.08v0ZM3884.3,817s0-.07,0-.1l0,.05-.09,0q-5,10.88-10,21.83Q3858,847.64,3842,856.54q6.3-10.65,12.71-21.27Q3869.34,826.08,3884.3,817Zm-33.38,20.61q-6.28,10.36-12.43,20.86-15.63,8.68-30.94,17.46,7.45-10.12,15-20.21,14-9.12,28.37-18.11l0-.09v.05Zm-14,23.49,0,0q-6.27,10.62-12.41,21.22-17.25,8.58-34.13,17.28,7.38-10.33,14.91-20.63Q3820.89,870,3836.89,861.12Zm-35.67,20.26q-7.35,10.07-14.59,20.22-16.46,8.5-32.59,17.1,8.4-9.83,16.93-19.59,15-8.91,30.28-17.76Zm-16.68,23.13h0q-7.35,10.31-14.6,20.63-18,8.43-35.7,16.94,8.39-10,16.9-20Q3767.67,913.23,3784.54,904.51ZM3730.38,944q-17.15,8.25-33.91,16.63,9.22-9.48,18.6-18.91,15.75-8.73,31.83-17.33Q3738.59,934.12,3730.38,944Zm-2.58,3.12,0-.05h0l-.07,0q-8.3,9.95-16.46,20-18.66,8.23-37,16.59,9.26-9.74,18.65-19.43Q3710.23,955.59,3727.8,947.07Zm-39.56,19.56q-9.1,9.42-18.12,18.91-17.73,8.1-35.15,16.29,10-9.21,20.2-18.33,16.38-8.49,33.07-16.87l.1-.1,0,0Zm-21.19,22.16h0q-9.16,9.69-18.21,19.45-19.2,8-38.08,16.18,10-9.48,20.19-18.85Q3648.85,997.13,3667.05,988.79Zm-60.75,37.53q-18.2,7.93-36.09,15.88,10.65-9,21.48-17.81,17-8.28,34.28-16.48Q3616,1017.11,3606.3,1026.32Zm-3.54,3.34,0,0q-9.92,9.42-19.69,18.78-19.66,8-39,15.88,10.7-9.22,21.55-18.3Q3584,1037.8,3602.76,1029.66Zm-42.71,18.92q-10.53,8.89-20.91,17.82-18.54,7.65-36.78,15.43,11.17-8.62,22.54-17.2,17.45-8.1,35.18-16.09Zm-25,21.33-.13.08q-10.59,9.18-20.93,18.33-20,7.65-39.67,15.43,11.28-8.93,22.73-17.8Q3515.91,1077.85,3535.1,1069.91ZM3491,1088.58q-11.05,8.64-22,17.23-18.9,7.49-37.49,15.1,11.67-8.4,23.53-16.71,17.85-7.9,36-15.7Zm-26.8,21.1.15-.11v0l-.15.06q-11.07,8.83-22,17.78-20.33,7.5-40.32,15.12,11.76-8.65,23.69-17.27Q3444.73,1117.45,3464.22,1109.68Zm-45,18.25-.18.07q-11.45,8.3-22.69,16.71-19.16,7.32-38,14.74,12.06-8.13,24.3-16.2,18-7.68,36.39-15.25l.18-.13Zm-28,20.49q-11.67,8.65-23.18,17.38-20.52,7.31-40.7,14.75,12.17-8.43,24.5-16.77Q3371.33,1156,3391.19,1148.42Zm-46.24,18q-11.91,8.12-23.69,16.29c-12.9,4.77-25.66,9.59-38.38,14.42q12.36-7.87,24.9-15.68c12.31-5,24.67-10.06,37.17-15h0Zm-29.51,20.32h0q-12.15,8.46-24.12,17-20.67,7.13-41,14.35,12.6-8.25,25.37-16.41C3288.85,1196.69,3302.12,1191.73,3315.44,1186.79Zm-29.16,20.57v.05q-12.12,8.67-24.07,17.33-22,7.15-43.66,14.42,12.66-8.51,25.49-16.91Q3265,1214.76,3286.28,1207.36Zm-73.49,33.75q-20.76,7-41.21,14.06,12.9-8.07,26-16c13.2-4.89,26.55-9.73,39.94-14.56v.05Q3225.07,1232.85,3212.79,1241.11Zm-5.6,3.82.08-.06,0,0-.06,0q-12.39,8.37-24.6,16.85c-14.79,4.68-29.39,9.44-44,14.22q12.9-8.28,26-16.46Q3185.75,1252.16,3207.19,1244.93Zm-49.51,17-.08,0q-12.69,8-25.18,16-20.77,6.82-41.25,13.77,13.15-7.85,26.51-15.6,19.82-7.14,39.92-14.16l.1-.06Zm-31.18,19.8q-12.69,8.19-25.26,16.44c-14.8,4.59-29.37,9.27-43.94,13.94q13.15-8.1,26.53-16Q3105,1288.88,3126.5,1281.78Zm-50.07,16.87q-12.91,7.77-25.66,15.57-20.82,6.73-41.36,13.54,13.37-7.63,26.93-15.21,19.92-7,40.09-13.91Zm-32.1,19.52.08,0v0l-.08,0q-13,8.05-26,16.14c-14.73,4.54-29.29,9.08-43.81,13.61q13.41-7.86,27-15.65C3015.73,1327.54,3029.92,1322.82,3044.33,1318.17Zm-50.64,16.71-.1,0q-13,7.54-25.93,15.14c-13.95,4.38-27.73,8.83-41.46,13.3q13.55-7.47,27.29-14.86,19.92-6.79,40.1-13.58l.1-.05Zm-32.83,19.06,0,.09q-13.36,7.92-26.63,15.81c-14.74,4.4-29.31,8.86-43.84,13.34q13.57-7.7,27.37-15.32C2932.08,1363.19,2946.35,1358.47,2960.86,1353.94Zm-77.79,31.48q-20.85,6.48-41.41,13,13.71-7.31,27.63-14.54,19.93-6.71,40.13-13.33l0,.09Q2896.21,1378.05,2883.07,1385.42Zm-7.2,4.22.1-.05,0,0-.07,0q-13.48,7.72-26.79,15.51c-14.84,4.34-29.42,8.76-44,13.19q13.76-7.54,27.76-15C2847.09,1398.7,2861.37,1394.17,2875.87,1389.64Zm-78.63,31q-20.73,6.3-41.14,12.7,13.86-7.14,27.94-14.26c13.17-4.35,26.51-8.65,39.85-13l.08,0Q2810.52,1413.37,2797.24,1420.69Zm-7.55,4.15,0,0h0l-.07,0q-13.5,7.46-26.83,15c-14.94,4.32-29.57,8.76-44.25,13.18q14-7.38,28.15-14.75C2761,1433.74,2775.25,1429.26,2789.69,1424.84Zm-52.52,16.44q-13.55,7.11-26.89,14.26c-13.51,4-27.08,8.08-40.44,12.18q14-7,28.19-14c12.91-4.22,26.09-8.32,39.14-12.45l0,0h0Zm-26.59,16.12c14.84-4.47,29.68-8.93,44.77-13.33l.41-.23,0,.1-.45.13q-13.7,7.77-27.18,15.71-23,6.35-45.71,12.78Q2696.43,1464.94,2710.58,1457.4Zm52.51-15.63c15.1-4.35,30.5-8.59,45.77-12.87l.32-.19,0,.09-.36.1q-13.34,8-26.49,16.19c-16,4.25-31.87,8.51-47.61,12.84Q2748.83,1449.8,2763.09,1441.77Zm52.28-14.68c16.06-4.52,32.14-9,48.46-13.43l.31-.2.08.09-.39.11q-13.11,8.37-26,16.89c-16.8,4.29-33.29,8.68-49.8,13.07Q2801.6,1435.3,2815.37,1427.09Zm54.1-14.92q24.77-6.64,49.82-13.17l.27-.18.08.09-.35.09q-12.81,8.68-25.39,17.51c-17.06,4.21-34.18,8.39-51,12.67Q2856.09,1420.65,2869.47,1412.17Zm55-14.52c17.08-4.44,34.35-8.81,51.68-13.15l.24-.17.08.1-.32.07q-12.18,8.82-24.16,17.77c-18.11,4.3-35.79,8.75-53.6,13.17Q2911.3,1406.5,2924.42,1397.65Zm56.24-14.28c17.84-4.48,35.63-9,53.77-13.34l.21-.16.08.09-.29.07q-12.06,9.32-24,18.83c-18.2,4.13-36.52,8.25-54.52,12.48Q2968.23,1392.32,2980.66,1383.37Zm58-14.37c18-4.3,36.41-8.49,54.67-12.71l.19-.15.08.09-.27.06q-11.4,9.36-22.56,19c-19,4.17-37.8,8.45-56.54,12.73Q3026.32,1378.45,3038.61,1369Zm58.52-13.6c18.74-4.33,37.54-8.63,56.57-12.86l.17-.14.08.09-.25,0q-11,9.76-21.77,19.65c-19.38,4.08-38.69,8.17-57.8,12.34Q3085.58,1364.95,3097.13,1355.4Zm60.1-13.62q28.8-6.39,58.06-12.61l.15-.14.08.09-.23.05q-10.44,10-20.75,20.17-29.92,6-59.37,12.16Q3146.15,1351.62,3157.23,1341.78Zm61.4-13.34c19.61-4.15,39.48-8.2,59.41-12.23l.13-.14.08.09-.21,0q-9.79,10.15-19.49,20.45c-20.53,3.95-40.77,8-61,12.08Q3208.06,1338.56,3218.63,1328.44Zm62.54-12.87c20.3-4.12,40.56-8.26,61.17-12.27l.11-.11.08.08-.19,0q-9.42,10.56-18.68,21.26c-20.8,3.82-41.69,7.6-62.19,11.52Q3271.31,1325.79,3281.17,1315.57Zm64.15-12.82c20.68-4,41.6-7.9,62.6-11.78l-6.11,7.5-11.38,14c-21.6,3.76-42.77,7.69-64,11.59Q3335.88,1313.38,3345.32,1302.75Zm58.6-4,6.72-8.25q31.74-5.85,63.93-11.5l.1-.13.08.1-.18,0q-8.18,11-16.45,22c-21.81,3.63-43.65,7.24-65.15,11Zm73.36-20.39c21.81-3.84,43.53-7.72,65.69-11.43q-7.71,11.41-15.55,22.77-33.57,5.29-66.68,10.79Q3469.05,1289.38,3477.28,1278.32Zm68.28-11.86c22.05-3.66,44.51-7.18,66.87-10.72l0,0q-7.08,11.48-14.35,22.94c-22.91,3.43-45.54,7-68.11,10.53Q3537.85,1277.8,3545.56,1266.46Zm69.46-11.13q33.92-5.4,68.41-10.58v0q-6.58,11.81-13.39,23.6c-23.21,3.28-46.47,6.53-69.35,9.94Q3607.94,1266.81,3615,1255.33Zm71-10.95c23.16-3.48,46.34-7,69.87-10.28v0q-6,12-12.38,24c-23.89,3.18-47.35,6.53-70.89,9.86Q3679.42,1256.18,3686,1244.38Zm72.48-10.67c23.6-3.33,47.6-6.51,71.6-9.69v0q-5.55,12.3-11.45,24.55c-24.29,3-48.6,6.06-72.54,9.23Q3752.47,1245.76,3758.47,1233.71Zm74.11-10c24.16-3.21,48.41-6.38,72.93-9.46v0q-5.09,12.56-10.62,25.1-37.17,4.4-73.77,8.93Q3827,1236,3832.58,1223.67Zm75.46-9.73c24.61-3.12,49.31-6.15,74.31-9.07q-2.85,7.76-5.84,15.53l0,0c-1.31,3.35-2.67,6.75-4,10.09-25.25,2.77-50.19,5.67-75.07,8.58Q3902.94,1226.53,3908,1213.94Zm.74-2.06q2.58-6.37,5-12.64t4.73-12.54c24.25-3.24,48.61-6.43,73.25-9.52l.06,0q-4.11,12.83-8.82,25.66C3958,1205.76,3933.35,1208.8,3908.78,1211.88Zm85.53-35c24.69-3.07,49.64-6,74.69-9l.06,0q-3.66,13.1-8,26.27c-25.31,2.74-50.6,5.51-75.52,8.41Q3990.18,1189.68,3994.31,1176.85Zm.69-2.15q4.1-12.89,7.69-25.71,36.46-4.87,73.56-9.5h0q-3,13.13-6.69,26.25C4044.58,1168.67,4019.63,1171.62,3995,1174.7Zm8.27-27.77q3.57-12.87,6.67-25.73,35.85-5.13,72.21-10.06h0q-2.43,13.15-5.45,26.31C4052.07,1140.53,4027.53,1143.67,4003.27,1146.93Zm7.19-27.85q3.08-12.87,5.69-25.73,35.05-5.43,70.64-10.63v0q-1.83,13.15-4.25,26.27Q4046.19,1113.95,4010.46,1119.08Zm6.08-27.69q2.58-12.89,4.77-25.74,34.14-5.72,68.86-11.21l0,0q-1.3,13.17-3.17,26.39Q4051.48,1086,4016.54,1091.39Zm5.19-27.81q2.13-12.87,3.9-25.76,33.13-6,66.85-11.78h0q-.8,13.18-2,26.35Q4055.79,1057.91,4021.73,1063.58Zm4.14-27.77q1.73-12.87,3.09-25.73,32.09-6.3,64.74-12.39h0q-.33,13.2-1.09,26.35Q4058.92,1029.83,4025.87,1035.81Zm9-165.65q-.15-12.78-.5-25.6,24-8,48.4-15.88h0q1.83,13.13,3.37,26.21Q4060.24,862.45,4034.85,870.16ZM4030.4,760.9q-.81-12.66-1.69-25.35,17.34-9,35.05-18h0q2.55,13,4.93,26Q4049.32,752.13,4030.4,760.9Zm-3.74-54.16q-.93-12.56-1.93-25.17,13.77-9.5,27.89-19,2.7,12.92,5.35,25.79Q4042.1,697.49,4026.66,706.74Zm-2.12-27.06-1.74-22.19-.22-2.81q11.94-9.64,24.21-19.28h.05q2.74,12.79,5.37,25.51Q4038.2,670.26,4024.54,679.68Zm-4.16-53.78q-1-12.21-1.86-24.46,8.24-9.93,16.75-19.85l4.44,20.66.91,4.27Q4030.38,616.18,4020.38,625.9Zm-2.06-27q-.89-11.94-1.71-23.94,6.39-9.94,13-19.86V555q2.58,12.21,5.19,24.45Q4026.43,589.19,4018.32,598.92Zm-2-27.14q-.8-11.56-1.52-23.16,4.53-9.78,9.24-19.57l.06-.11q2.45,11.77,4.87,23.56Q4022.56,562.15,4016.34,571.78Zm-.43,32.81v-.05q.89,12,1.77,23.93-9.81,9.59-19.35,19.19.75-11.7,1.58-23.42Q4007.8,614.4,4015.91,604.59Zm-18.67,20.15q-7.29,9.13-14.38,18.28,2.31-10.53,4.75-21.08,5.51-9.32,11.21-18.6Q3998,614,3997.24,624.74Zm-.23,3.18v0h0q-.78,11.3-1.51,22.66-9.33,9.39-18.32,18.82,2.31-11.11,4.77-22.2Q3989.36,637.54,3997,627.92Zm-18.59,23.82h0q-2.29,10.5-4.48,21-8.61,9-17,18.06,3.72-10.29,7.55-20.57,6.93-9.24,13.93-18.48v0Zm-5.16,24.11h0q-2.31,11.05-4.52,22.06-10.65,9.26-21,18.55,3.78-10.74,7.66-21.55Q3964.26,685.37,3973.26,675.85Zm-29,43.82q-9.84,8.87-19.44,17.79,5-10,10.13-20,8.16-9.15,16.54-18.3h0Q3947.84,709.43,3944.25,719.67Zm-1.11,3.24q-3.73,10.77-7.39,21.53-11.82,9.09-23.36,18.23,5.1-10.51,10.32-21Q3932.79,732.26,3943.14,722.91Zm-34.54,42.75q-10.95,8.72-21.67,17.47,6.15-9.69,12.48-19.35,9.36-9,19-18Q3913.43,755.72,3908.6,765.66ZM3907,769q-5,10.46-10,20.92-12.93,8.89-25.56,17.86,6.32-10.12,12.75-20.34Q3895.44,778.21,3907,769Zm-39.7,41.73q-11.94,8.46-23.62,17,7.18-9.33,14.53-18.64,10.47-8.88,21.14-17.69h0Q3873.27,801.08,3867.27,810.75Zm-2.18,3.55.06-.09v0l-.07,0q-6.21,10.1-12.31,20.26-13.89,8.66-27.48,17.42,7.35-9.81,14.86-19.58Q3852.49,823.36,3865.09,814.3Zm-30.28,22q-7,9.26-14,18.56-12.78,8.28-25.32,16.62,8.09-9,16.32-17.92,11.37-8.66,23-17.26l.1-.12v0Zm-16.89,22.4.12-.16,0,.06-.16.1q-7.23,9.7-14.3,19.47-14.72,8.51-29.21,17.09,8.36-9.54,16.85-19Q3804.48,867.44,3817.92,858.71Zm-32.63,21.51q-7.92,8.91-15.7,17.86-13.49,8-26.71,16.09,8.85-8.62,17.85-17.21,12.18-8.4,24.56-16.74l.06-.06h0Zm-19.09,21.69,0,0q-8.27,9.49-16.36,19c-10.26,5.49-20.47,11-30.55,16.54q9.1-9.13,18.38-18.21Q3751.77,910.55,3766.2,901.91Zm-52.29,38.52q-14.09,7.82-27.94,15.67,9.51-8.28,19.18-16.59,12.93-8.19,26-16.31Q3722.47,931.84,3713.91,940.43Zm-4.17,4.21h0q-9,9.14-17.91,18.3Q3675.77,971,3660,979.13q9.9-8.86,19.9-17.66Q3694.67,953,3709.74,944.64Zm-36.95,20.85q-9.39,8.29-18.63,16.63-14.52,7.53-28.84,15.12,10-7.95,20.18-15.88,13.52-7.93,27.29-15.87h0Zm-23.49,21,.08-.07v0l-.07,0q-9.74,8.82-19.34,17.72-16.53,7.77-32.8,15.7,10.53-8.59,21.21-17.12Q3633.72,994.62,3649.3,986.51ZM3590.86,1023q-14.84,7.24-29.46,14.57,10.36-7.57,20.89-15.1,13.92-7.69,28.08-15.32Q3600.55,1015,3590.86,1023Zm-5.6,4.5,0,.07q-10.32,8.48-20.54,16.93-16.89,7.58-33.49,15.22,10.92-8.19,22-16.34Q3569.13,1035.44,3585.26,1027.49Zm-61.09,35.64q-15.09,7-29.93,14,10.64-7.23,21.43-14.4,14.32-7.48,28.86-14.87h0Q3534.3,1055.5,3524.17,1063.13Zm-6.28,4.77,0,0q-10.83,8.24-21.49,16.48-17.17,7.36-34.17,14.81,11.37-7.93,22.88-15.81Q3501.34,1075.64,3517.89,1067.9Zm-42.38,20.15q-10.55,7.29-21,14.61-15.21,6.72-30.21,13.53,11-7,22-13.85,14.52-7.21,29.27-14.33Zm-28,19.53-.08.08q-11.27,8-22.3,15.9-17.4,7.15-34.56,14.39,11.73-7.7,23.61-15.32Q3430.7,1115.07,3447.5,1107.58Zm-43.71,19.8-21.5,14.07q-15.36,6.52-30.51,13.12,11.1-6.69,22.39-13.32,14.67-7,29.62-13.87h0l.08,0Zm-29.58,19.44.24-.16v0l-.24.11q-11.48,7.59-22.8,15.32-17.61,7-35,14.07,12-7.39,24.13-14.75C3351.7,1156.54,3362.89,1151.65,3374.21,1146.82Zm-44.62,19.38-.33.15q-10.87,6.66-21.64,13.43-15.45,6.32-30.67,12.72,11.25-6.42,22.64-12.8,14.73-6.71,29.67-13.35l.33-.21Zm-30.44,18.8h0q-11.83,7.44-23.55,14.92c-11.86,4.54-23.57,9.19-35.26,13.73q12.19-7.2,24.57-14.31C3276.25,1194.53,3287.63,1189.74,3299.15,1185Zm-31,19.63h0q-12.27,7.9-24.45,15.88c-12.81,4.59-25.59,9.19-38.22,13.85q12.6-7.65,25.39-15.21Q3249.47,1211.84,3268.2,1204.63Zm-70.85,32.78q-17.62,6.54-35,13.18,12.38-6.94,24.92-13.86,16.89-6.92,34-13.72h0Q3209.31,1230.18,3197.35,1237.41Zm-7.93,4.82v0q-12.51,7.67-24.89,15.37c-12.74,4.43-25.48,8.84-38.06,13.38q12.89-7.47,26-14.88C3164.67,1251.48,3177,1246.86,3189.42,1242.23Zm-71.86,32.1q-17.46,6.32-34.72,12.68,12.49-6.75,25.18-13.43,16.74-6.63,33.74-13.2h0Q3129.58,1267.32,3117.56,1274.33Zm-8.59,5q-12.69,7.41-25.32,15c-12.69,4.33-25.43,8.67-38,13.06q13.11-7.31,26.42-14.51C3084.26,1288.33,3096.62,1283.91,3109,1279.37Zm-48.68,18q-12.14,6.66-24.11,13.41-17.37,6.1-34.56,12.29,12.6-6.52,25.36-13,16.56-6.37,33.31-12.67l.29-.16,0,0ZM3027,1315.86q-12.9,7.26-25.62,14.55c-12.71,4.23-25.44,8.46-38,12.76q13.29-7.11,26.74-14.15C3002.33,1324.59,3014.69,1320.22,3027,1315.86Zm-73.82,30.86q-17.25,6-34.37,12,12.61-6.32,25.39-12.6,16.7-6.28,33.57-12.48Q2965.41,1340.13,2953.21,1346.72Zm-9.8,5.3.12-.06v0l-.12,0q-12.94,7-25.71,14.13c-12.64,4.12-25.31,8.23-37.79,12.4q13.38-6.94,27-13.83C2919,1360.45,2931.22,1356.24,2943.41,1352Zm-49.92,17.59q-12.33,6.29-24.52,12.67c-11.47,3.87-22.83,7.77-34.19,11.67q12.54-6.1,25.26-12.17c11.12-4.07,22.23-8.14,33.45-12.17l.16-.08v0Zm-34.86,18,0,.05q-13.12,6.87-26.13,13.73c-12.43,4-25,7.93-37.28,11.95q13.29-6.64,26.73-13.25C2834.12,1395.92,2846.39,1391.76,2858.63,1387.61Zm-75,29.68c-11.54,3.82-22.93,7.7-34.33,11.57q12.42-5.91,25-11.74c11.27-4.07,22.51-8.14,33.9-12.15l.05,0Q2796,1411.15,2783.68,1417.29Zm-11.16,5.73.14-.07,0,0-.11,0q-13.14,6.69-26.15,13.48-18.78,5.89-37.41,11.85,13.27-6.48,26.73-12.89Q2754,1429.19,2772.52,1423Zm-50.07,16.87-.14,0q-12.21,5.91-24.33,11.91c-11.8,3.84-23.35,7.77-34.95,11.68,8.2-3.81,16.4-7.59,24.68-11.34,11.48-4.09,22.93-8.22,34.6-12.25l.17-.08ZM2686,1457.7l.06,0h0l-.09,0q-13.23,6.57-26.25,13.15c-12.82,4-25.49,8-38.15,12q13.26-6.33,26.72-12.59C2660.84,1466.08,2673.34,1461.86,2686,1457.7Zm-51.57,17.23q-12.2,5.77-24.24,11.55c-11.46,3.67-22.89,7.37-34.2,11.09,8-3.61,16.05-7.23,24.15-10.81q17-6,34.29-11.83l.08,0h0Zm-36.23,17.28.37-.18,0,0-.41.13q-13,6.3-25.81,12.66c-13.15,4-26.07,8.14-39,12.23q13.2-6.13,26.56-12.23C2572.64,1500.63,2585.35,1496.39,2598.21,1492.21Zm-53.43,17.72q-11.87,5.47-23.56,11c-10.91,3.45-21.86,6.94-32.74,10.34,8.31-3.65,16.62-7.31,25-10.93,10.32-3.52,20.89-6.95,31.3-10.44l.45-.21,0,0ZM2520.62,1523c13.74-4.38,27.48-8.78,41.43-13.09l.13-.06v0l-.13,0q-13.64,6.77-27.11,13.6c-14.07,4.11-27.9,8.3-41.75,12.48Q2506.8,1529.49,2520.62,1523Zm51.54-16.19c13.82-4.19,27.85-8.31,41.82-12.45l.1-.05v0l-.1,0q-13.71,7.14-27.21,14.36-21.78,6.15-43.3,12.35Q2557.71,1513.94,2572.16,1506.83Zm50.53-15c15-4.47,29.92-8.93,45.15-13.29l.13-.08v0l-.13,0q-13.93,7.66-27.74,15.48-22.87,6.24-45.52,12.55Q2608.55,1499.13,2622.69,1491.8Zm52.59-15.37c15.34-4.37,30.82-8.68,46.34-13l.12-.07v0l-.12,0q-13.41,7.82-26.7,15.72c-16.17,4.26-32.09,8.6-48,12.94Q2661,1484.24,2675.28,1476.43Zm53-14.84q24.06-6.64,48.5-13.17l.07,0v0l-.07,0q-13.41,8.24-26.65,16.58c-16.52,4.2-33,8.4-49.32,12.66Q2714.43,1469.59,2728.27,1461.59Zm54.14-14.65c16.65-4.44,33.36-8.85,50.25-13.2l.09,0v0l-.09,0q-13.14,8.58-26.13,17.23-25.77,6.27-51.12,12.67Q2768.82,1455.26,2782.41,1446.94Zm55.39-14.55c17-4.36,34.33-8.63,51.6-12.91l.08,0v0l-.08,0q-12.58,8.71-25,17.53c-17.9,4.21-35.53,8.52-53.15,12.83Q2824.43,1441.07,2837.8,1432.39Zm56.14-14c17.91-4.45,35.74-8.92,54-13.26l.06,0,0,0h0q-12.45,9.17-24.73,18.46c-18.29,4.09-36.53,8.26-54.6,12.48Q2881.18,1427.17,2893.94,1418.37Zm58.13-14.3c18.06-4.26,36.52-8.38,54.8-12.56l0,0h0l-.07,0q-11.84,9.3-23.58,18.7c-18.84,4.09-37.62,8.2-56.22,12.4Q2939.52,1413.3,2952.07,1404.07Zm58.57-13.43c18.86-4.32,37.71-8.63,56.87-12.85l0,0h0q-11.39,9.6-22.68,19.26c-19.5,4.07-38.73,8.22-57.93,12.39Q2998.69,1400,3010.64,1390.64Zm60.34-13.59c19.18-4.19,38.58-8.29,58-12.38l0,0,0,0H3129q-10.85,9.8-21.61,19.62-29.83,5.93-59.24,12Q3059.52,1386.68,3071,1377.05Zm61.31-13.09q29.67-6.21,59.66-12.25h0q-10.42,10.08-20.75,20.23c-20.31,3.88-40.65,7.77-60.65,11.75Q3121.4,1373.79,3132.29,1364Zm62.67-12.85c20.29-4.08,40.59-8.15,61.2-12.11l0,0,0,0h0q-9.88,10.34-19.72,20.73c-20.94,3.81-41.64,7.72-62.27,11.64Q3184.55,1361.22,3195,1351.11Zm64.14-12.7c20.58-3.94,41.52-7.74,62.39-11.57l0,0h0q-9.27,10.47-18.52,21c-21.43,3.69-42.59,7.51-63.71,11.34Q3249.18,1348.78,3259.1,1338.41Zm65.2-12.09c21.3-3.92,42.53-7.86,64.18-11.65l-17.75,21.79c-21.78,3.59-43.55,7.18-65,10.9Zm66.85-12.1c21.54-3.75,43.43-7.36,65.27-11l0,0,0,0h-.06q-8.25,11-16.58,22.09-33.47,5.26-66.47,10.7Q3382.31,1325.09,3391.15,1314.22Zm67.95-11.51q33.17-5.51,66.85-10.84l0,0q-7.78,11.28-15.63,22.45c-22.91,3.4-45.38,7-67.91,10.48Q3450.83,1313.76,3459.1,1302.71Zm69.42-11.24c22.62-3.56,45.3-7.13,68.25-10.54l0,0q-7.29,11.55-14.73,23.08c-23.16,3.27-46.27,6.54-69.11,9.94Q3520.81,1302.71,3528.52,1291.47Zm70.82-10.93c22.93-3.42,46.23-6.68,69.49-10l0,0q-6.78,11.76-13.8,23.5c-23.61,3.13-47.15,6.32-70.43,9.59Q3592.06,1292.11,3599.34,1280.54Zm72.06-10.29c23.56-3.34,47.07-6.69,71-9.89h0q-6.39,12.06-13,24.13c-24.13,3-48,6.14-71.79,9.31Q3664.62,1282,3671.4,1270.25ZM3745,1260c24-3.19,48.32-6.22,72.66-9.26l0,0q-5.9,12.2-12.11,24.44c-24.71,2.9-49.16,5.9-73.51,8.94Q3738.65,1272.09,3745,1260Zm75.15-9.57q36.68-4.56,73.85-8.94h0q-5.55,12.53-11.53,25c-25,2.74-49.88,5.48-74.48,8.35Q3814.26,1262.69,3820.14,1250.47Zm76.33-9.22c24.91-2.92,49.87-5.82,75.17-8.59h0q-5.23,12.81-11,25.63-38.1,3.92-75.67,8Q3890.91,1253.73,3896.47,1241.25Zm77.67-8.84c25.13-2.79,50.75-5.34,76.28-7.94-.71,1.85-1.42,3.7-2.15,5.53l0,0c-2.67,6.79-5.5,13.6-8.41,20.44-25.77,2.45-51.31,5-76.78,7.64Q3968.87,1245.26,3974.14,1232.41Zm.87-2.2c1.42-3.48,2.82-7,4.17-10.44q3-7.62,5.73-15.22c25-2.9,50.27-5.66,75.6-8.42l-.07,0q-4.3,13.08-9.18,26.09C4025.74,1224.9,4000.15,1227.46,3975,1230.21Zm165.46-44.52c-25.92,2.63-51.42,5.37-76.92,8.15q4.32-13.12,8-26.24c25.23-3,50.57-5.85,76.18-8.65l.06,0Q4144.55,1172.27,4140.47,1185.69ZM4154,1130q-2.49,13.39-5.7,26.79c-25.58,2.79-50.9,5.69-76.11,8.63q3.66-13.14,6.67-26.28,37.28-4.7,75.15-9.15Zm.38-2.07q-37.79,4.48-75.05,9.16,3-13.17,5.45-26.33,36.65-5,73.87-9.69h0Q4156.86,1114.52,4154.35,1128Zm4.57-29q-37.16,4.72-73.75,9.68,2.4-13.17,4.27-26.34,35.89-5.19,72.35-10.21v0Q4160.69,1085.58,4158.92,1098.94Zm3-28.77q-36.4,5-72.23,10.21,1.84-13.19,3.16-26.37,35-5.52,70.62-10.83l.05,0Q4163,1056.61,4161.91,1070.17Zm1.94-56h0q.12,13.49-.24,27-35.55,5.31-70.48,10.83,1.29-13.2,2.11-26.39,34-5.8,68.61-11.41Zm-.88-29q.68,13.51.86,27.12-34.58,5.52-68.51,11.34.76-13.18,1.11-26.39,32.94-6.12,66.49-12Zm-.12-2q-33.49,5.91-66.35,12,.3-13.18.2-26.39,31.76-6.42,64.13-12.64l0,.06Q4162.06,969.71,4162.85,983.17Zm-2.2-28.88q-32.34,6.21-64,12.62-.15-13.2-.67-26.4,30.48-6.71,61.58-13.25v0Q4159.3,940.81,4160.65,954.29Zm-3.3-28.92q-31,6.5-61.42,13.23-.55-13.19-1.45-26.39,29.12-7.05,58.86-13.86l0,0Q4155.53,911.93,4157.35,925.37Zm-4.32-28.8q-29.64,6.81-58.69,13.83-.93-13.15-2.17-26.35,26.49-7,53.49-13.84l.55-.15.5-.39,1.26-1Q4150.7,882.62,4153,896.57Zm-5.44-29.79-1.76,1.42q-27.19,6.87-53.85,13.94-1.28-13.12-2.81-26.32,23.71-6.81,47.95-13.62l.63-.17.52-.5,3.34-3.17,0,.08Q4144.8,852.66,4147.59,866.78Zm-13.15-58.37q3.53,14.13,6.71,28.19l-4,3.78q-24.32,6.79-48.19,13.73-1.56-13.12-3.38-26.29,21.27-6.89,43-13.61l.73-.23.52-.56,4.6-5Zm-.49-2-5.52,6q-21.77,6.81-43.1,13.61-1.85-13.1-3.89-26.25,19.14-6.84,38.66-13.55l.79-.27.5-.64,5.24-6.67v0Q4130.45,792.56,4134,806.37Zm-7.91-30q-3.22,4.05-6.33,8-19.44,6.71-38.55,13.51-2.07-13.08-4.32-26.22,17.2-6.81,34.77-13.61l.85-.33.44-.68q2.63-4,5.37-8v.11Q4122.28,762.86,4126,776.39ZM4109.51,720l0,0q4.14,13.43,8.13,26.72-3.4,4.95-6.59,9.81-17.39,6.69-34.46,13.49-2.26-13.06-4.69-26.17,15.48-6.93,31.29-13.74l.88-.39.38-.69q2.44-4.51,5.06-9h0Zm-9.13-28.74q4.23,13.13,8.27,26.15-3.33,5.67-6.4,11.34-15.51,6.72-30.75,13.52-2.43-13-5-26.09,13.9-7,28.13-14l.88-.43.31-.69c1.44-3.24,3-6.52,4.52-9.8Zm-9.29-28.33h0q4.26,12.74,8.38,25.53-3.07,6.33-5.85,12.56-13.82,6.79-27.37,13.61-2.55-13.07-5.22-26.09,12.46-7.21,25.24-14.36l.85-.48.23-.66c1.17-3.31,2.43-6.71,3.74-10.11v0Zm-9.45-28q4.21,12.38,8.31,24.67-2.7,6.78-5.07,13.45-12.24,6.87-24.24,13.8-2.66-12.94-5.38-25.94,11.14-7.46,22.55-14.84l.77-.51.17-.6q1.34-5,2.87-10Zm-9.54-27.53h.06q4.14,11.92,8.13,23.79c-1.48,4.69-2.87,9.37-4.12,14q-10.76,7-21.32,14-2.7-12.88-5.47-25.83,9.9-7.74,20-15.45l.67-.51.1-.52C4070.75,613.71,4071.4,610.55,4072.1,607.36Zm-10.51-18.09,0-.44c.32-2.81.69-5.62,1.13-8.45v0q4,11.37,7.91,22.66c-1.1,4.77-2.2,9.51-3.1,14.23q-9.36,7.14-18.51,14.3-2.75-12.8-5.51-25.63,8.64-8.13,17.5-16.21Zm-8.9-27.57.37-.41v-.37c.11-2.26.28-4.53.46-6.8l7.44,21.35c-.75,4.71-1.46,9.42-2,14.1q-8,7.3-15.8,14.63l-.72-3.35-4.75-22Q4045.1,570.26,4052.69,561.7Zm-8.39-28.22.23-.35v-.27c-.05-1.46,0-2.92,0-4.39l6.9,19.55c-.45,4.53-.83,9.07-1.06,13.61q-6.64,7.46-13.1,15-2.67-12.42-5.33-25Q4038,542.55,4044.3,533.48Zm-8.56-28.12.12-.25v-.2a7.84,7.84,0,0,1-.06-1.19l.06-.11q3,8.67,6,17.38-.24,6.45-.16,12.85-5.28,7.6-10.38,15.23-2.6-12.18-5.12-24.43Q4030.85,515,4035.74,505.36ZM4027,478.09l0-.07,0,.05v0q2.81,8.06,5.6,16.14.15,5.88.56,11.7-3.87,7.67-7.61,15.32-2.43-11.75-4.79-23.53Q4023.78,487.91,4027,478.09Zm-8.77-25.69,0-.06q2.64,7.85,5.32,15.7c.27,3.34.58,6.68,1,10q-2.43,7.47-4.79,14.92-2.2-11-4.31-22Q4016.77,461.71,4018.22,452.4Zm-8-23.9h0q2.27,6.83,4.54,13.64c.38,2.65.74,5.3,1.21,7.94q-1,6.59-2,13.15-1.82-9.45-3.53-18.92-.15-7.87-.22-15.81Zm-.2,84.4.54,10.42q-1.4,4.83-2.77,9.64Q4008.87,522.94,4010.05,512.9ZM4006.39,547q2.22-8.19,4.58-16.42v-.1l0,0,0,.05q.56,9.45,1.14,18.9-3.81,8.26-7.52,16.53Q4005.45,556.51,4006.39,547Zm-2.45,25.65q4.11-9.33,8.39-18.65l.06-.08q.69,10.85,1.38,21.87-5.91,9.21-11.63,18.42Q4003,583.42,4003.94,572.66Zm-1.67-10.36q-.51,5.58-1,11.12-2.28,5.15-4.5,10.3Q3999.44,573,4002.27,562.3Zm-8.78,34.58q3.51-8.32,7.14-16.66l.06-.08q-.81,9.45-1.6,19-5.09,8.28-10.08,16.58C3990.49,609.36,3992,603.15,3993.49,596.88ZM3987.63,611l0-.08q-1.35,5.8-2.75,11.64-3.16,5.34-6.28,10.7Q3983.07,622.12,3987.63,611Zm-13.81,34.63q4.79-8.39,9.69-16.76h0q-2.13,9.35-4.13,18.67-6.36,8.25-12.56,16.52Q3970.24,654.84,3973.82,645.62Zm-7.44,13.17q-2.22,5.79-4.36,11.7-4,5.38-8,10.79Q3960.1,670,3966.38,658.79Zm-18.85,34.63q6-8.37,12.15-16.73-3.39,9.18-6.69,18.34-7.51,8.18-14.88,16.35Q3942.76,702.4,3947.53,693.42Zm-8.91,12.51q-3,5.76-6,11.55-4.76,5.34-9.45,10.68Q3930.78,717,3938.62,705.93Zm-23.56,34.22q7.14-8.25,14.42-16.51-4.52,8.93-9,17.87-8.59,8-17,16Q3909.21,748.85,3915.06,740.15Zm-10.42,12.18-7.33,11.14q-5.32,5.14-10.59,10.29Q3895.56,763,3904.64,752.33ZM3876.7,786q8.16-8.14,16.53-16.24-5.58,8.63-11.07,17.24-9.51,7.83-18.86,15.69Q3869.93,794.35,3876.7,786Zm-12,12q-4.18,5.25-8.34,10.51-5.74,4.88-11.41,9.73Q3854.7,808.15,3864.7,798.05Zm-31.81,32.86Q3842,823,3851.24,815h0q-6.48,8.29-12.93,16.64-10.26,7.53-20.32,15.12Q3825.38,838.84,3832.89,830.91ZM3819.24,843q-4.53,4.89-9,9.72-6,4.55-11.83,9.08Q3808.71,852.34,3819.24,843Zm-35,31.92q9.79-7.65,19.71-15.28l.16-.18v.05a1.09,1.09,0,0,0-.17.13q-7.14,7.85-14.18,15.74-10.91,7.3-21.66,14.66Q3776.06,882.41,3784.19,874.88Zm-16,12.6.36-.34v.05l-.37.29q-4.47,4.21-8.88,8.48-6,4.13-11.85,8.24Q3757.77,895.82,3768.24,887.48Zm-37.35,30.39q10.46-7.46,21.08-14.83-7.89,7.53-15.57,15.13-11.39,7-22.62,14.06Q3722.27,925,3730.89,917.87Zm-17.68,12.67q-4.59,3.9-9.14,7.78c-3.89,2.46-7.74,4.95-11.59,7.42Q3702.76,938.14,3713.21,930.54Zm-40,29.61q10.9-7.17,22-14.26h.06q-8.29,7.11-16.53,14.35-11.72,6.68-23.26,13.42Q3664.33,966.88,3673.25,960.15Zm-20,13.23-8.71,6.74q-5.28,3.12-10.54,6.25Q3643.56,979.85,3653.25,973.38ZM3612,1001.53q11.17-6.79,22.51-13.59l0,0h0l-.05,0q-8.53,6.73-17,13.49-11.87,6.35-23.55,12.75Q3602.89,1007.85,3612,1001.53Zm-22.44,13.75q-4,2.85-8,5.71-4.77,2.63-9.5,5.26Q3580.73,1020.76,3589.54,1015.28Zm-42.44,26.89q11.49-6.57,23.14-13.07h0q-8.88,6.39-17.67,12.87c-7.92,4-15.83,8-23.65,12Q3538,1048.07,3547.1,1042.17ZM3522,1056.65l-6.94,4.6-8.06,4.19ZM3479.33,1082q11.52-6.24,23.2-12.39-9.06,6.1-18,12.26-11.85,5.67-23.54,11.34Q3470.11,1087.62,3479.33,1082Zm-27.8,15.14-5.71,3.54-6.29,3.11Zm-43,24.15q11.45-5.86,23-11.68l.12-.07h0l-.15.07q-9,5.68-17.89,11.42-11.82,5.37-23.49,10.84Q3399.35,1126.59,3408.58,1121.32ZM3378,1137.17l-4.12,2.43-4.35,2ZM3335.18,1160q11.4-5.55,22.88-11.06l0,0,.08,0-.12.06q-8.94,5.33-17.75,10.67-11.67,5.12-23.22,10.29Q3326.09,1164.94,3335.18,1160Zm-33.57,16.63-2.34,1.31-2.35,1.06Zm-42,21.45q11.07-5.21,22.27-10.34h0q-8.72,4.93-17.32,9.9-11.31,4.8-22.52,9.63Q3250.75,1202.63,3259.57,1198.09Zm-6.84,6.39v0q-11,6.39-21.93,12.86c-10.28,4.07-20.43,8.19-30.58,12.31q11.34-6.21,22.84-12.33Q3237.79,1210.89,3252.73,1204.48Zm-70.5,31q10.74-4.85,21.58-9.65-8.43,4.58-16.78,9.15c-7.33,3-14.59,6-21.85,9.08Q3173.66,1239.75,3182.23,1235.47Zm-8.26,6.74q-10.92,6.09-21.8,12.23c-10.27,4-20.37,7.94-30.49,11.93q11.4-6,22.94-11.89Q3159.2,1248.31,3174,1242.21Zm-71.21,30.26q10.53-4.63,21.21-9.17-8.13,4.23-16.22,8.52c-7.12,2.84-14.21,5.68-21.21,8.51C3091.94,1277.71,3097.33,1275.08,3102.76,1272.47Zm-9.15,6.86v0q-11,5.82-21.85,11.7c-10.11,3.79-20.11,7.63-30.11,11.46q11.31-5.67,22.76-11.34Q3078.9,1285.24,3093.61,1279.33Zm-72,29.7q10.32-4.4,20.77-8.75c-5.25,2.65-10.4,5.3-15.65,7.92-6.8,2.64-13.53,5.3-20.26,7.94C3011.5,1313.76,3016.53,1311.39,3021.6,1309Zm-39.07,18.49q14.2-5.67,28.56-11.31l.4-.2,0,0-.44.17q-10.7,5.52-21.23,11.09c-10,3.66-19.89,7.36-29.79,11.06Q2971.23,1332.9,2982.53,1327.52Zm-43.73,17.72c6.6-2.67,13.19-5.45,19.84-8.15l.65-.32,0,0-.69.28c-4.89,2.38-9.74,4.77-14.6,7.2q-9.52,3.6-19,7.22C2929.63,1349.42,2934.19,1347.32,2938.8,1345.24ZM2899,1363.42c9.63-3.74,19.24-7.51,29-11.22h0q-10.74,5.37-21.36,10.75c-10,3.54-19.75,7.16-29.57,10.76Q2888,1368.54,2899,1363.42ZM2854.48,1381c6.85-2.76,13.63-5.54,20.55-8.28-5.06,2.4-10.06,4.82-15.14,7.22-5.76,2.12-11.61,4.21-17.34,6.34C2846.48,1384.52,2850.48,1382.75,2854.48,1381Zm-40.43,18c9.66-3.68,19.24-7.39,29-11l.21-.1v0l-.21.07q-10.71,5.19-21.29,10.43c-9.78,3.4-19.38,6.91-29,10.31C2799.84,1405.47,2806.91,1402.22,2814.05,1399Zm-44.21,17c6.55-2.57,13.06-5.15,19.67-7.71-4.9,2.25-9.73,4.52-14.57,6.78-5.67,2-11.39,4-17,6.07C2761.91,1419.42,2765.84,1417.73,2769.84,1416Zm-41.59,18c9.61-3.61,19.23-7.22,29-10.78v0c-7.17,3.37-14.28,6.76-21.34,10.08q-14.1,4.81-28.1,9.72C2714.61,1440.08,2721.39,1437,2728.25,1434Zm-44.08,16.55c5.87-2.27,11.93-4.47,17.87-6.74-4.45,2-8.84,4.06-13.26,6l-18,6.38C2675.25,1454.34,2679.67,1452.45,2684.17,1450.58Zm-42.84,18.19c9.4-3.4,18.9-6.8,28.4-10.21l0,0c-7,3.15-13.9,6.38-20.83,9.56-9,3.07-18.11,6-27,9.07C2628.38,1474.44,2634.82,1471.56,2641.33,1468.77Zm-46,17.12c5.69-2.14,11.48-4.26,17.21-6.39l.28-.12,0,0-.24.09c-3.7,1.61-7.34,3.25-11,4.92-5.84,2-11.61,4.09-17.41,6.13C2587.78,1489,2591.5,1487.43,2595.28,1485.89Zm-41.06,17c8.75-3.13,17.68-6.22,26.5-9.33l.11,0h0l-.14,0c-6.67,3-13.27,6-19.85,9.08-9.16,3-18.26,6-27.41,9.08C2540.37,1508.8,2547.22,1505.85,2554.22,1502.92Zm-46.15,16.92,13.9-5.14c-2.94,1.26-5.81,2.53-8.71,3.77-4.46,1.54-8.81,3.1-13.25,4.63C2502.71,1522,2505.37,1521,2508.07,1519.84Zm-42.43,17.32c8.21-2.87,16.34-5.79,24.6-8.66l.64-.28,0,0-.68.24c-5.95,2.62-11.83,5.26-17.69,7.93-8.86,2.9-17.52,5.85-26.24,8.8C2452.74,1542.53,2459.15,1539.83,2465.64,1537.16Zm-41.09,14.59c3.41-1.24,6.8-2.49,10.22-3.72l.94-.4,0,0-1,.36c-3.72,1.57-7.39,3.16-11.05,4.77-3.87,1.3-7.79,2.6-11.64,3.9C2416.24,1555.06,2420.36,1553.4,2424.55,1551.75Zm-45.66,18.18c7.77-2.73,15.66-5.43,23.53-8.12l.25-.11v0l-.25.08c-6.18,2.66-12.28,5.35-18.44,8-8.38,2.71-16.68,5.47-25,8.21C2365.61,1575.35,2372.21,1572.63,2378.89,1569.93Zm-51.72,18.34c5.64-2,11.37-4,17-6-2.83,1.14-5.61,2.34-8.43,3.53-4.71,1.56-9.46,3.12-14.14,4.68C2323.49,1589.72,2325.31,1589,2327.17,1588.27ZM670.37,2765.54q-41.83,10.9-84.29,21.88v0C871,2384,1333.67,1954.44,2176.3,1643.47,1394.56,1954.26,957.62,2371.94,670.37,2765.54Zm86.88-22.73q-41.7,11-84,22v0c295.44-404.42,749.41-834.18,1574-1146.85,1.88-.66,3.8-1.31,5.68-2C1485.81,1928.54,1056.15,2347.42,757.25,2742.81ZM843.4,2720q-41.31,11-83.3,22v0c302.87-400.28,740-824.55,1526.65-1137.84,9.24-3.18,18.48-6.36,27.83-9.52C1571.94,1908.42,1152.81,2325.39,843.4,2720Zm85.8-22.88q-41.12,11-82.88,22.1v0c311.87-397.52,735.4-817.62,1489.7-1131.67,10.3-3.47,20.57-6.87,31-10.27C1654.82,1891.71,1248.53,2304.92,929.2,2697.16Zm85.24-22.95q-40.8,11-82.29,22.16v0c321.35-394.54,731.08-810.13,1452.4-1124.77,11.33-3.63,22.83-7.2,34.25-10.8C1737.73,1875.67,1344.11,2284.65,1014.44,2674.21Zm84.69-23q-40.5,11.09-81.68,22.22c331.19-391.27,727.27-801.94,1415-1116.88q19.95-6.26,40.19-12.4C1821.84,1859.29,1439.94,2264.13,1099.13,2651.18Zm84.09-23.09q-40.2,11.09-81.07,22.27l0,0c341.79-388.16,725.25-794.11,1380.54-1109.27,14.4-4.37,28.78-8.74,43.4-13C1906,1843.4,1535.62,2243.74,1183.22,2628.09Zm83.52-23.19q-39.85,11.13-80.39,22.32l0,0c353.23-385.25,724.77-786.48,1348.56-1101.75,14.65-4.26,29.51-8.45,44.31-12.65-554.52,296.79-905.26,664.63-1248.4,1024.88Q1298.81,2571.35,1266.74,2604.9Zm82.88-23.3q-39.49,11.15-79.67,22.36,31.35-32.82,62.77-65.79l0,0C1677,2176.71,2028.91,1807.66,2587,1510.57q23.16-6.54,46.65-13c-488.47,275.47-816.27,608.75-1142.89,941.09Q1420.4,2510.14,1349.62,2581.6Zm82.22-23.28q-39.1,11.16-78.91,22.4,70.24-70.54,139.63-141.46l0,0c327.62-333.42,656.49-667.65,1147.76-943.46,16.19-4.44,32.37-8.88,48.82-13.22-427.05,254.16-730,554.59-1036.33,858.65C1580,2413.56,1506.84,2486.13,1431.84,2558.32Zm81.52-23.41q-38.7,11.16-78.1,22.41c74.45-71.64,147-143.68,219.38-215.51l0,0c307.2-305,611.11-606.27,1040.45-860.76,16.47-4.31,33.16-8.54,49.83-12.79-369.42,232.5-645.72,501.38-928.15,776.55C1717.87,2341.15,1618.14,2438.3,1513.36,2534.91Zm80.87-23.47q-38.26,11.17-77.26,22.44c104.1-96.08,203.23-192.66,301.56-288.49h0c283.28-276,560.41-545.67,931.73-778.53Q2776,1460.37,2802,1454c-315.85,210.56-564.1,449.12-819.91,695.17C1857.57,2268.94,1731.23,2390.5,1594.23,2511.44Zm80-23.56q-37.8,11.17-76.32,22.45C1734.05,2390,1859.82,2269,1983.77,2149.78h0c256.58-246.78,505.53-486,822.88-697,17.82-4.37,35.6-8.73,53.71-13C2594.29,1628,2375.2,1837.21,2148.2,2054,1998.84,2196.62,1846.07,2342.52,1674.2,2487.88Zm79.25-23.59q-37.35,11.17-75.35,22.44c170.94-144.75,323.06-290,471.75-432.05h0c227.65-217.45,447.4-427.22,714.63-615.83,18.16-4.26,36.54-8.43,54.94-12.6-219.73,165.27-408.78,345.62-605,532.93C2141.75,2124,1963.38,2294.28,1753.45,2464.29Zm78.46-23.67q-36.83,11.18-74.38,22.44c208.86-169.37,386.55-338.95,558.63-503.2h0c196.86-187.91,386.5-368.83,607.17-534.54q28.14-6.28,56.62-12.48c-176.91,141.74-335.35,293.81-499.71,451.65C2286,2051,2083.37,2245.62,1831.91,2440.62Zm77.48-23.69q-36.18,11.15-73.1,22.36C2086.47,2245,2288.38,2051.08,2482,1865.17c165-158.39,323.92-311,501.56-453.11,19.28-4.19,38.66-8.39,58.28-12.48-137.47,117.57-265.12,241.75-397.12,370.25C2431.33,1977.51,2206.33,2196.46,1909.39,2416.93Zm76.91-23.83q-35.73,11.16-72.17,22.39c295.42-219.77,519.65-438,732.33-645v0c132.52-129,260.61-253.66,398.72-371.65q29.53-6.1,59.49-12.1c-101.24,92.64-198.18,189.06-297.95,288.34C2577.3,1903.39,2332.86,2146.64,1986.3,2393.1Zm75.58-23.81q-34.91,11.05-70.53,22.2c344.74-245.69,588.41-488.15,817.11-715.74h0c100.22-99.72,197.58-196.57,299.32-289.61,20.13-4,40.5-7.93,60.91-11.82-68.27,67-135.26,135.78-203.72,206.11C2723.25,1828.78,2462.88,2096.21,2061.88,2369.29Zm74.74-23.82q-34.38,11-69.38,22.15c398.83-272.28,658.49-538.93,899.56-786.6h0c68.86-70.73,136.21-139.91,204.86-207.23,20.71-4,41.5-7.88,62.5-11.71-38.6,40.68-77.1,82-116.1,123.85C2868.39,1753.92,2596.84,2045.19,2136.62,2345.47Zm74.05-24q-33.75,11-68.19,22.12C2600.14,2044.15,2871,1753.7,3120,1486.4c39.34-42.21,78.13-83.84,117-124.83,21.17-3.86,42.42-7.68,63.9-11.41q-18.24,20.71-36.62,41.63C3011.76,1679,2735.14,1993.5,2210.67,2321.47Zm72.48-23.83q-32.58,10.8-65.82,21.68c521.31-327,797.1-640.66,1049-927.17h0q18.74-21.35,37.45-42.48c21.51-3.73,43.34-7.34,65.15-11C3127.53,1634.15,2851.36,1957.1,2283.15,2297.64Zm72.06-24.12q-32.16,10.84-65,21.76h0c565-339.8,840.4-662.11,1081.4-957q33.06-5.46,66.64-10.74C3217.21,1619.73,2941.69,1936.42,2355.21,2273.52Zm70.55-24q-31.05,10.66-62.79,21.39c582.7-336.22,857.25-652.17,1077.77-943.76,22.58-3.55,45.15-7.11,68.07-10.51C3306.85,1605.38,3030.82,1915.83,2425.76,2249.5Zm9.28-3.23-.18.1,0,0,.16-.05c600.28-332.53,874.95-642,1076.31-930.06,22.87-3.4,46-6.68,69.23-10-184.28,285-461.82,589.1-1085.48,919.18Q2465.39,2235.82,2435,2246.27Zm127.72-44.68q-28.22,10-57,20.13l-.2.11,0,0,.18-.07C3123.63,1893,3399.54,1590,3583.12,1306c23.33-3.28,46.9-6.47,70.56-9.61C3485.56,1577.34,3205.36,1875.09,2562.76,2201.59Zm66.54-23.91q-26.81,9.71-54.18,19.49l-.15.08.06,0,.09,0c635.6-324.82,913.78-621.28,1081.13-901.22,23.83-3.16,47.73-6.29,71.91-9.32C3574.69,1563.39,3290.85,1854.78,2629.3,2177.68Zm68.41-25q-26.39,9.76-53.38,19.6h0c652.64-320.74,933.85-610.53,1086.42-885.91q36.49-4.59,73.6-8.95C3664.27,1549.29,3376.35,1833.92,2697.71,2152.65Zm64.15-24q-23.27,8.79-47,17.62l0,0h0c667.78-316.1,952.69-598.9,1092-869.18,24.61-2.87,49.53-5.62,74.53-8.35C3752.53,1535.74,3458.78,1813.88,2761.86,2128.65Zm23.45-8.89,0,0h0c681.55-311.06,970.77-586.6,1098.53-851.29q37.62-4.11,75.74-8c-119.35,261.84-419.92,533.46-1134.79,844.19Q2805.25,2112.19,2785.31,2119.76Zm74.41-28.68-.06,0h0l0,0c691.19-305,984.51-572.64,1102.32-830.88,25.48-2.61,51-5.2,76.86-7.65-111.84,256.44-420.24,521.58-1152.84,828.19Zm93-36.93h0c686.13-295.27,979.91-552.61,1088.73-801.83,25.74-2.5,51.68-4.77,77.74-7C4013.1,1495.27,3697.44,1753.06,2952.68,2054.15Zm1167.34-811c-26.06,2.28-52,4.59-77.73,7q4.53-10.41,8.61-20.79l2-5.18c25.72-2.6,51.43-5.22,77.54-7.69q-2.86,7.95-6,15.88h0Q4122.26,1237.77,4120,1243.11Z" transform="translate(-580.6 263.86)"/><polygon class="cls-1" points="2642.61 1479.23 2641.54 1479.74 2642.07 1479.51 2642.61 1479.23"/></svg>